<?xml version="1.0" encoding="UTF-8" standalone="no"?>
<!-- Created with Inkscape (http://www.inkscape.org/) -->

<svg
   xmlns:dc="http://purl.org/dc/elements/1.1/"
   xmlns:cc="http://creativecommons.org/ns#"
   xmlns:rdf="http://www.w3.org/1999/02/22-rdf-syntax-ns#"
   xmlns:svg="http://www.w3.org/2000/svg"
   xmlns="http://www.w3.org/2000/svg"
   xmlns:sodipodi="http://sodipodi.sourceforge.net/DTD/sodipodi-0.dtd"
   xmlns:inkscape="http://www.inkscape.org/namespaces/inkscape"
   width="283.90671mm"
   height="104.9377mm"
   viewBox="0 0 283.90671 104.9377"
   version="1.1"
   id="svg11337"
   inkscape:version="0.92.5 (2060ec1f9f, 2020-04-08)"
   sodipodi:docname="selka40_plate_rev2.svg">
  <defs
     id="defs11331" />
  <sodipodi:namedview
     id="base"
     pagecolor="#ffffff"
     bordercolor="#666666"
     borderopacity="1.0"
     inkscape:pageopacity="0.0"
     inkscape:pageshadow="2"
     inkscape:zoom="0.35"
     inkscape:cx="-1504.912"
     inkscape:cy="1489.736"
     inkscape:document-units="mm"
     inkscape:current-layer="layer1"
     showgrid="false"
     inkscape:window-width="3840"
     inkscape:window-height="2092"
     inkscape:window-x="0"
     inkscape:window-y="31"
     inkscape:window-maximized="1" />
  <metadata
     id="metadata11334">
    <rdf:RDF>
      <cc:Work
         rdf:about="">
        <dc:format>image/svg+xml</dc:format>
        <dc:type
           rdf:resource="http://purl.org/dc/dcmitype/StillImage" />
        <dc:title></dc:title>
      </cc:Work>
    </rdf:RDF>
  </metadata>
  <g
     inkscape:label="Layer 1"
     inkscape:groupmode="layer"
     id="layer1"
     transform="translate(-332.02879,-438.05496)">
    <circle
       style="fill:none;stroke:#101010;stroke-width:0.25400001;stroke-linecap:round;stroke-linejoin:round;stroke-miterlimit:4;stroke-dasharray:none;stroke-opacity:1;shape-rendering:crispEdges"
       id="path21820"
       cx="419.37256"
       cy="490.14056"
       r="0.99999994" />
    <circle
       style="fill:none;stroke:#101010;stroke-width:0.25400001;stroke-linecap:round;stroke-linejoin:round;stroke-miterlimit:4;stroke-dasharray:none;stroke-opacity:1;shape-rendering:crispEdges"
       id="path21820-8"
       cx="460.23434"
       cy="466.26459"
       r="0.99999994" />
    <circle
       style="fill:none;stroke:#101010;stroke-width:0.25400001;stroke-linecap:round;stroke-linejoin:round;stroke-miterlimit:4;stroke-dasharray:none;stroke-opacity:1;shape-rendering:crispEdges"
       id="path21820-1"
       cx="391.5592"
       cy="511.60358"
       r="0.99999994" />
    <circle
       style="fill:none;stroke:#101010;stroke-width:0.25400001;stroke-linecap:round;stroke-linejoin:round;stroke-miterlimit:4;stroke-dasharray:none;stroke-opacity:1;shape-rendering:crispEdges"
       id="path21820-6"
       cx="470.23572"
       cy="522.23956"
       r="0.99999994" />
    <circle
       style="fill:none;stroke:#101010;stroke-width:0.25400001;stroke-linecap:round;stroke-linejoin:round;stroke-miterlimit:4;stroke-dasharray:none;stroke-opacity:1;shape-rendering:crispEdges"
       id="path21820-2"
       cx="516.87634"
       cy="471.56683"
       r="0.99999994" />
    <circle
       style="fill:none;stroke:#101010;stroke-width:0.25400001;stroke-linecap:round;stroke-linejoin:round;stroke-miterlimit:4;stroke-dasharray:none;stroke-opacity:1;shape-rendering:crispEdges"
       id="path21820-19"
       cx="576.05835"
       cy="473.24957"
       r="0.99999994" />
    <circle
       style="fill:none;stroke:#101010;stroke-width:0.25400001;stroke-linecap:round;stroke-linejoin:round;stroke-miterlimit:4;stroke-dasharray:none;stroke-opacity:1;shape-rendering:crispEdges"
       id="path21820-9"
       cx="552.69031"
       cy="511.88907"
       r="0.99999994" />
    <path
       inkscape:connector-curvature="0"
       style="font-size:12px;vector-effect:non-scaling-stroke;fill:none;fill-rule:evenodd;stroke:#000000;stroke-width:0.25400001;stroke-linecap:round;stroke-linejoin:round;stroke-miterlimit:4;stroke-dasharray:none;shape-rendering:crispEdges"
       d="m 382.48159,462.68838 a 0.49999998,0.49999998 0 0 0 0.4256,0.5647 l 12.8734,1.8093 a 0.49999998,0.49999998 0 0 0 0.5648,-0.4255 l 1.8092,-12.8735 a 0.49999998,0.49999998 0 0 0 -0.4255,-0.5647 l -12.8735,-1.8093 a 0.49999998,0.49999998 0 0 0 -0.5648,0.4255 z"
       id="path22470-9" />
    <path
       inkscape:connector-curvature="0"
       style="font-size:12px;vector-effect:non-scaling-stroke;fill:none;fill-rule:evenodd;stroke:#000000;stroke-width:0.25400001;stroke-linecap:round;stroke-linejoin:round;stroke-miterlimit:4;stroke-dasharray:none;shape-rendering:crispEdges"
       d="m 401.34619,465.33968 a 0.49999998,0.49999998 0 0 0 0.4256,0.5647 l 12.8734,1.80928 a 0.49999998,0.49999998 0 0 0 0.5648,-0.4256 l 1.8092,-12.87348 a 0.49999998,0.49999998 0 0 0 -0.4255,-0.5647 l -12.8735,-1.8092 a 0.49999998,0.49999998 0 0 0 -0.5647,0.4255 z"
       id="path22468-6" />
    <path
       inkscape:connector-curvature="0"
       style="font-size:12px;vector-effect:non-scaling-stroke;fill:none;fill-rule:evenodd;stroke:#000000;stroke-width:0.25400001;stroke-linecap:round;stroke-linejoin:round;stroke-miterlimit:4;stroke-dasharray:none;shape-rendering:crispEdges"
       d="m 420.21079,467.99086 a 0.49999998,0.49999998 0 0 0 0.4256,0.5647 l 12.8735,1.8093 a 0.49999998,0.49999998 0 0 0 0.5647,-0.4255 l 1.8092,-12.87348 a 0.49999998,0.49999998 0 0 0 -0.4255,-0.5648 l -12.8735,-1.8092 a 0.49999998,0.49999998 0 0 0 -0.5647,0.4255 z"
       id="path22466-7" />
    <path
       inkscape:connector-curvature="0"
       style="font-size:12px;vector-effect:non-scaling-stroke;fill:none;fill-rule:evenodd;stroke:#000000;stroke-width:0.25400001;stroke-linecap:round;stroke-linejoin:round;stroke-miterlimit:4;stroke-dasharray:none;shape-rendering:crispEdges"
       d="m 439.07539,470.64216 a 0.49999998,0.49999998 0 0 0 0.4256,0.5647 l 12.8735,1.8093 a 0.49999998,0.49999998 0 0 0 0.5647,-0.4256 l 1.8092,-12.87348 a 0.49999998,0.49999998 0 0 0 -0.4255,-0.5647 l -12.8735,-1.8093 a 0.49999998,0.49999998 0 0 0 -0.5647,0.4256 z"
       id="path22464-7" />
    <path
       inkscape:connector-curvature="0"
       style="font-size:12px;vector-effect:non-scaling-stroke;fill:none;fill-rule:evenodd;stroke:#000000;stroke-width:0.25400001;stroke-linecap:round;stroke-linejoin:round;stroke-miterlimit:4;stroke-dasharray:none;shape-rendering:crispEdges"
       d="m 384.54649,482.21576 a 0.49999998,0.49999998 0 0 0 0.4255,0.5648 l 12.8735,1.8092 a 0.49999998,0.49999998 0 0 0 0.5648,-0.4255 l 1.8092,-12.8735 a 0.49999998,0.49999998 0 0 0 -0.4255,-0.5647 l -12.8735,-1.8093 a 0.49999998,0.49999998 0 0 0 -0.5647,0.4256 z"
       id="path22462-3" />
    <path
       inkscape:connector-curvature="0"
       style="font-size:12px;vector-effect:non-scaling-stroke;fill:none;fill-rule:evenodd;stroke:#000000;stroke-width:0.25400001;stroke-linecap:round;stroke-linejoin:round;stroke-miterlimit:4;stroke-dasharray:none;shape-rendering:crispEdges"
       d="m 403.41109,484.86706 a 0.49999998,0.49999998 0 0 0 0.4255,0.5647 l 12.8735,1.8093 a 0.49999998,0.49999998 0 0 0 0.5648,-0.4256 l 1.8092,-12.8735 a 0.49999998,0.49999998 0 0 0 -0.4255,-0.5647 l -12.8735,-1.8092 a 0.49999998,0.49999998 0 0 0 -0.5647,0.4255 z"
       id="path22460-7" />
    <path
       inkscape:connector-curvature="0"
       style="font-size:12px;vector-effect:non-scaling-stroke;fill:none;fill-rule:evenodd;stroke:#000000;stroke-width:0.25400001;stroke-linecap:round;stroke-linejoin:round;stroke-miterlimit:4;stroke-dasharray:none;shape-rendering:crispEdges"
       d="m 422.27569,487.51826 a 0.49999998,0.49999998 0 0 0 0.4256,0.5648 l 12.8734,1.8092 a 0.49999998,0.49999998 0 0 0 0.5648,-0.4255 l 1.8092,-12.8735 a 0.49999998,0.49999998 0 0 0 -0.4255,-0.5647 l -12.8735,-1.8093 a 0.49999998,0.49999998 0 0 0 -0.5647,0.4256 z"
       id="path22458-1" />
    <path
       inkscape:connector-curvature="0"
       style="font-size:12px;vector-effect:non-scaling-stroke;fill:none;fill-rule:evenodd;stroke:#000000;stroke-width:0.25400001;stroke-linecap:round;stroke-linejoin:round;stroke-miterlimit:4;stroke-dasharray:none;shape-rendering:crispEdges"
       d="m 441.14029,490.16956 a 0.49999998,0.49999998 0 0 0 0.4256,0.5647 l 12.8734,1.8093 a 0.49999998,0.49999998 0 0 0 0.5648,-0.4256 l 1.8092,-12.8735 a 0.49999998,0.49999998 0 0 0 -0.4255,-0.5647 l -12.8735,-1.8092 a 0.49999998,0.49999998 0 0 0 -0.5647,0.4255 z"
       id="path22456-2" />
    <path
       inkscape:connector-curvature="0"
       style="font-size:12px;vector-effect:non-scaling-stroke;fill:none;fill-rule:evenodd;stroke:#000000;stroke-width:0.25400001;stroke-linecap:round;stroke-linejoin:round;stroke-miterlimit:4;stroke-dasharray:none;shape-rendering:crispEdges"
       d="m 391.32759,502.40606 a 0.49999998,0.49999998 0 0 0 0.4255,0.5647 l 12.8735,1.8093 a 0.49999998,0.49999998 0 0 0 0.5647,-0.4256 l 1.8093,-12.8735 a 0.49999998,0.49999998 0 0 0 -0.4256,-0.5647 l -12.8735,-1.8092 a 0.49999998,0.49999998 0 0 0 -0.5647,0.4255 z"
       id="path22454-2" />
    <path
       inkscape:connector-curvature="0"
       style="font-size:12px;vector-effect:non-scaling-stroke;fill:none;fill-rule:evenodd;stroke:#000000;stroke-width:0.25400001;stroke-linecap:round;stroke-linejoin:round;stroke-miterlimit:4;stroke-dasharray:none;shape-rendering:crispEdges"
       d="m 410.19219,505.05726 a 0.49999998,0.49999998 0 0 0 0.4255,0.5647 l 12.8735,1.8093 a 0.49999998,0.49999998 0 0 0 0.5647,-0.4255 l 1.8093,-12.8735 a 0.49999998,0.49999998 0 0 0 -0.4256,-0.5648 l -12.8735,-1.8092 a 0.49999998,0.49999998 0 0 0 -0.5647,0.4255 z"
       id="path22452-1" />
    <path
       inkscape:connector-curvature="0"
       style="font-size:12px;vector-effect:non-scaling-stroke;fill:none;fill-rule:evenodd;stroke:#000000;stroke-width:0.25400001;stroke-linecap:round;stroke-linejoin:round;stroke-miterlimit:4;stroke-dasharray:none;shape-rendering:crispEdges"
       d="m 429.05679,507.70856 a 0.49999998,0.49999998 0 0 0 0.4255,0.5647 l 12.8735,1.8093 a 0.49999998,0.49999998 0 0 0 0.5647,-0.4256 l 1.8093,-12.8735 a 0.49999998,0.49999998 0 0 0 -0.4256,-0.5647 l -12.8735,-1.8093 a 0.49999998,0.49999998 0 0 0 -0.5647,0.4256 z"
       id="path22450-5" />
    <path
       inkscape:connector-curvature="0"
       style="font-size:12px;vector-effect:non-scaling-stroke;fill:none;fill-rule:evenodd;stroke:#000000;stroke-width:0.25400001;stroke-linecap:round;stroke-linejoin:round;stroke-miterlimit:4;stroke-dasharray:none;shape-rendering:crispEdges"
       d="m 447.92139,510.35976 a 0.49999998,0.49999998 0 0 0 0.4255,0.5647 l 12.8735,1.8093 a 0.49999998,0.49999998 0 0 0 0.5647,-0.4255 l 1.8093,-12.8735 a 0.49999998,0.49999998 0 0 0 -0.4256,-0.5648 l -12.8735,-1.8092 a 0.49999998,0.49999998 0 0 0 -0.5647,0.4255 z"
       id="path22448-0" />
    <path
       inkscape:connector-curvature="0"
       style="font-size:12px;vector-effect:non-scaling-stroke;fill:none;fill-rule:evenodd;stroke:#000000;stroke-width:0.25400001;stroke-linecap:round;stroke-linejoin:round;stroke-miterlimit:4;stroke-dasharray:none;shape-rendering:crispEdges"
       d="m 411.08089,509.77936 a 0.49999998,0.49999998 0 0 0 -0.5152,0.43 l -0.07,0.495 -0.5808,-0.082 a 0.49999998,0.49999998 0 0 0 -0.56479,0.4258 l -1.8092,12.8731 a 0.49999998,0.49999998 0 0 0 0.42529,0.5648 l 1.07281,0.151 5.9417,0.8351 2.4096,0.3384 3.4412,0.4837 9.43189,1.326 a 0.49999998,0.49999998 0 0 0 0.01,0 l 2.4035,0.3375 1.1628,0.1633 2.4106,0.339 2.3648,0.3323 7.0677,0.9932 3.4412,0.4837 v 0 l 2.4019,0.3374 a 0.49999998,0.49999998 0 0 0 0.011,0 l 5.9413,0.8351 a 0.49999998,0.49999998 0 0 0 0.01,0 l 1.0697,0.1504 a 0.49999998,0.49999998 0 0 0 0.5648,-0.4253 l 1.8092,-12.8736 a 0.49999998,0.49999998 0 0 0 -0.4253,-0.5649 l -0.5814,-0.082 0.07,-0.495 a 0.49999998,0.49999998 0 0 0 -0.4258,-0.5648 l -5.9418,-0.8351 a 0.49999998,0.49999998 0 0 0 -0.5643,0.4258 l -0.07,0.4951 -1.9192,-0.2698 -3.4412,-0.4837 -6.5702,-0.9234 0.07,-0.4951 a 0.49999998,0.49999998 0 0 0 -0.4253,-0.5648 l -4.7759,-0.6713 v 0 l -1.16268,-0.1633 -4.779,-0.6718 a 0.49999998,0.49999998 0 0 0 -0.56489,0.4258 l -0.07,0.4951 -6.5711,-0.924 v 0 l -3.44111,-0.4837 -1.91879,-0.2698 0.07,-0.495 a 0.49999998,0.49999998 0 0 0 -0.42531,-0.5643 l -5.9418,-0.8351 a 0.49999998,0.49999998 0 0 0 -0.05,-0.01 z"
       id="path22446-9" />
    <path
       inkscape:connector-curvature="0"
       style="font-size:12px;vector-effect:non-scaling-stroke;fill:none;fill-rule:evenodd;stroke:#000000;stroke-width:0.25400001;stroke-linecap:round;stroke-linejoin:round;stroke-miterlimit:4;stroke-dasharray:none;shape-rendering:crispEdges"
       d="m 476.50109,474.18226 a 0.49999998,0.49999998 0 0 0 0.5647,0.4255 l 12.8735,-1.8092 a 0.49999998,0.49999998 0 0 0 0.4255,-0.5647 l -1.8092,-12.87348 a 0.49999998,0.49999998 0 0 0 -0.5648,-0.4256 l -12.8734,1.8093 a 0.49999998,0.49999998 0 0 0 -0.4256,0.5647 z"
       id="path22438-0" />
    <path
       inkscape:connector-curvature="0"
       style="font-size:12px;vector-effect:non-scaling-stroke;fill:none;fill-rule:evenodd;stroke:#000000;stroke-width:0.25400001;stroke-linecap:round;stroke-linejoin:round;stroke-miterlimit:4;stroke-dasharray:none;shape-rendering:crispEdges"
       d="m 495.36569,471.53096 a 0.49999998,0.49999998 0 0 0 0.5647,0.4256 l 12.8735,-1.8093 a 0.49999998,0.49999998 0 0 0 0.4256,-0.5647 l -1.8093,-12.87348 a 0.49999998,0.49999998 0 0 0 -0.5647,-0.4255 l -12.8735,1.8092 a 0.49999998,0.49999998 0 0 0 -0.4256,0.5648 z"
       id="path22436-4" />
    <path
       inkscape:connector-curvature="0"
       style="font-size:12px;vector-effect:non-scaling-stroke;fill:none;fill-rule:evenodd;stroke:#000000;stroke-width:0.25400001;stroke-linecap:round;stroke-linejoin:round;stroke-miterlimit:4;stroke-dasharray:none;shape-rendering:crispEdges"
       d="m 514.23029,468.87976 a 0.49999998,0.49999998 0 0 0 0.5647,0.4255 l 12.8735,-1.8092 a 0.49999998,0.49999998 0 0 0 0.4256,-0.5647 l -1.8093,-12.87348 a 0.49999998,0.49999998 0 0 0 -0.5647,-0.4256 l -12.8735,1.8093 a 0.49999998,0.49999998 0 0 0 -0.4256,0.5647 z"
       id="path22434-0" />
    <path
       inkscape:connector-curvature="0"
       style="font-size:12px;vector-effect:non-scaling-stroke;fill:none;fill-rule:evenodd;stroke:#000000;stroke-width:0.25400001;stroke-linecap:round;stroke-linejoin:round;stroke-miterlimit:4;stroke-dasharray:none;shape-rendering:crispEdges"
       d="m 533.09489,466.22858 a 0.49999998,0.49999998 0 0 0 0.5647,0.4255 l 12.8735,-1.8093 a 0.49999998,0.49999998 0 0 0 0.4256,-0.5647 l -1.8093,-12.8735 a 0.49999998,0.49999998 0 0 0 -0.5647,-0.4255 l -12.8735,1.8092 a 0.49999998,0.49999998 0 0 0 -0.4256,0.5648 z"
       id="path22432-1" />
    <path
       inkscape:connector-curvature="0"
       style="font-size:12px;vector-effect:non-scaling-stroke;fill:none;fill-rule:evenodd;stroke:#000000;stroke-width:0.25400001;stroke-linecap:round;stroke-linejoin:round;stroke-miterlimit:4;stroke-dasharray:none;shape-rendering:crispEdges"
       d="m 483.86849,492.38406 a 0.49999998,0.49999998 0 0 0 0.5647,0.4255 l 12.8735,-1.8092 a 0.49999998,0.49999998 0 0 0 0.4255,-0.5647 l -1.8092,-12.8735 a 0.49999998,0.49999998 0 0 0 -0.5647,-0.4256 l -12.8735,1.8093 a 0.49999998,0.49999998 0 0 0 -0.4256,0.5647 z"
       id="path22430-3" />
    <path
       inkscape:connector-curvature="0"
       style="font-size:12px;vector-effect:non-scaling-stroke;fill:none;fill-rule:evenodd;stroke:#000000;stroke-width:0.25400001;stroke-linecap:round;stroke-linejoin:round;stroke-miterlimit:4;stroke-dasharray:none;shape-rendering:crispEdges"
       d="m 502.73309,489.73276 a 0.49999998,0.49999998 0 0 0 0.5647,0.4256 l 12.8735,-1.8093 a 0.49999998,0.49999998 0 0 0 0.4255,-0.5647 l -1.8092,-12.8735 a 0.49999998,0.49999998 0 0 0 -0.5647,-0.4255 l -12.8735,1.8092 a 0.49999998,0.49999998 0 0 0 -0.4256,0.5647 z"
       id="path22428-7" />
    <path
       inkscape:connector-curvature="0"
       style="font-size:12px;vector-effect:non-scaling-stroke;fill:none;fill-rule:evenodd;stroke:#000000;stroke-width:0.25400001;stroke-linecap:round;stroke-linejoin:round;stroke-miterlimit:4;stroke-dasharray:none;shape-rendering:crispEdges"
       d="m 521.59769,487.08156 a 0.49999998,0.49999998 0 0 0 0.5647,0.4255 l 12.8735,-1.8092 a 0.49999998,0.49999998 0 0 0 0.4256,-0.5647 l -1.8093,-12.8735 a 0.49999998,0.49999998 0 0 0 -0.5647,-0.4256 l -12.8735,1.8093 a 0.49999998,0.49999998 0 0 0 -0.4256,0.5647 z"
       id="path22426-4" />
    <path
       inkscape:connector-curvature="0"
       style="font-size:12px;vector-effect:non-scaling-stroke;fill:none;fill-rule:evenodd;stroke:#000000;stroke-width:0.25400001;stroke-linecap:round;stroke-linejoin:round;stroke-miterlimit:4;stroke-dasharray:none;shape-rendering:crispEdges"
       d="m 540.46229,484.43026 a 0.49999998,0.49999998 0 0 0 0.5647,0.4256 l 12.8735,-1.8093 a 0.49999998,0.49999998 0 0 0 0.4255,-0.5647 l -1.8092,-12.8735 a 0.49999998,0.49999998 0 0 0 -0.5647,-0.4255 l -12.8735,1.8092 a 0.49999998,0.49999998 0 0 0 -0.4256,0.5648 z"
       id="path22424-1" />
    <path
       inkscape:connector-curvature="0"
       style="font-size:12px;vector-effect:non-scaling-stroke;fill:none;fill-rule:evenodd;stroke:#000000;stroke-width:0.25400001;stroke-linecap:round;stroke-linejoin:round;stroke-miterlimit:4;stroke-dasharray:none;shape-rendering:crispEdges"
       d="m 477.08739,512.57426 a 0.49999998,0.49999998 0 0 0 0.5647,0.4255 l 12.8735,-1.8092 a 0.49999998,0.49999998 0 0 0 0.4256,-0.5647 l -1.8093,-12.8735 a 0.49999998,0.49999998 0 0 0 -0.5647,-0.4256 l -12.8735,1.8093 a 0.49999998,0.49999998 0 0 0 -0.4255,0.5647 z"
       id="path22422-1" />
    <path
       inkscape:connector-curvature="0"
       style="font-size:12px;vector-effect:non-scaling-stroke;fill:none;fill-rule:evenodd;stroke:#000000;stroke-width:0.25400001;stroke-linecap:round;stroke-linejoin:round;stroke-miterlimit:4;stroke-dasharray:none;shape-rendering:crispEdges"
       d="m 495.95209,509.92306 a 0.49999998,0.49999998 0 0 0 0.5647,0.4255 l 12.8734,-1.8092 a 0.49999998,0.49999998 0 0 0 0.4256,-0.5648 l -1.8093,-12.8735 a 0.49999998,0.49999998 0 0 0 -0.5647,-0.4255 l -12.8735,1.8093 a 0.49999998,0.49999998 0 0 0 -0.4255,0.5647 z"
       id="path22420-3" />
    <path
       inkscape:connector-curvature="0"
       style="font-size:12px;vector-effect:non-scaling-stroke;fill:none;fill-rule:evenodd;stroke:#000000;stroke-width:0.25400001;stroke-linecap:round;stroke-linejoin:round;stroke-miterlimit:4;stroke-dasharray:none;shape-rendering:crispEdges"
       d="m 514.81669,507.27176 a 0.49999998,0.49999998 0 0 0 0.5647,0.4255 l 12.8734,-1.8092 a 0.49999998,0.49999998 0 0 0 0.4256,-0.5647 l -1.8092,-12.8735 a 0.49999998,0.49999998 0 0 0 -0.5648,-0.4256 l -12.8735,1.8093 a 0.49999998,0.49999998 0 0 0 -0.4255,0.5647 z"
       id="path22418-0" />
    <path
       inkscape:connector-curvature="0"
       style="font-size:12px;vector-effect:non-scaling-stroke;fill:none;fill-rule:evenodd;stroke:#000000;stroke-width:0.25400001;stroke-linecap:round;stroke-linejoin:round;stroke-miterlimit:4;stroke-dasharray:none;shape-rendering:crispEdges"
       d="m 533.68129,504.62056 a 0.49999998,0.49999998 0 0 0 0.5647,0.4255 l 12.8735,-1.8092 a 0.49999998,0.49999998 0 0 0 0.4255,-0.5648 l -1.8092,-12.8734 a 0.49999998,0.49999998 0 0 0 -0.5648,-0.4256 l -12.8735,1.8093 a 0.49999998,0.49999998 0 0 0 -0.4255,0.5647 z"
       id="path22416-3" />
    <path
       inkscape:connector-curvature="0"
       style="font-size:12px;vector-effect:non-scaling-stroke;fill:none;fill-rule:evenodd;stroke:#000000;stroke-width:0.25400001;stroke-linecap:round;stroke-linejoin:round;stroke-miterlimit:4;stroke-dasharray:none;shape-rendering:crispEdges"
       d="m 530.18549,509.71396 a 0.49999998,0.49999998 0 0 0 -0.085,0.01 l -5.9417,0.8351 a 0.49999998,0.49999998 0 0 0 -0.4253,0.5648 l 0.07,0.4951 -1.9146,0.2692 -1.0831,0.1524 -8.9302,1.2548 -0.07,-0.4951 a 0.49999998,0.49999998 0 0 0 -0.4796,-0.43 0.49999998,0.49999998 0 0 0 -0.085,0.01 l -4.7682,0.6703 a 0.49999998,0.49999998 0 0 0 -0.011,0 l -5.9418,0.8351 a 0.49999998,0.49999998 0 0 0 -0.4253,0.5648 l 0.07,0.4956 -8.925,1.2541 a 0.49999998,0.49999998 0 0 0 -0.01,0 l -1.0831,0.1525 -1.9188,0.2692 -0.07,-0.495 a 0.49999998,0.49999998 0 0 0 -0.4796,-0.43 0.49999998,0.49999998 0 0 0 -0.085,0.01 l -5.9417,0.8356 a 0.49999998,0.49999998 0 0 0 -0.4253,0.5649 l 0.07,0.495 -2.9399,0.4129 a 0.49999998,0.49999998 0 0 0 -0.4253,0.5648 l 1.8092,12.8737 a 0.49999998,0.49999998 0 0 0 0.5648,0.4253 l 3.4339,-0.4827 5.9417,-0.8356 2.4076,-0.3385 h 0.01 l 1.0831,-0.1524 9.4258,-1.324 2.3647,-0.3322 2.4127,-0.339 1.1628,-0.1633 2.4117,-0.3396 2.3647,-0.3322 9.4191,-1.324 h 0.01 l 1.0831,-0.1524 2.4154,-0.3396 1.02891,-0.1447 4.91279,-0.6904 3.4318,-0.4826 a 0.49999998,0.49999998 0 0 0 0.4258,-0.5643 l -1.8092,-12.8736 a 0.49999998,0.49999998 0 0 0 -0.4785,-0.43 v 0 a 0.49999998,0.49999998 0 0 0 -0.084,0 l -2.93939,0.4134 -0.07,-0.4956 a 0.49999998,0.49999998 0 0 0 -0.4796,-0.4299 z"
       id="path22414-2" />
    <path
       inkscape:connector-curvature="0"
       style="font-size:12px;vector-effect:non-scaling-stroke;fill:none;fill-rule:evenodd;stroke:#000000;stroke-width:0.25400001;stroke-linecap:round;stroke-linejoin:round;stroke-miterlimit:4;stroke-dasharray:none;shape-rendering:crispEdges"
       d="m 344.01459,463.55698 a 0.49999998,0.49999998 0 0 0 0.5,0.5 h 13 a 0.49999998,0.49999998 0 0 0 0.5001,-0.5 v -13.0001 a 0.49999998,0.49999998 0 0 0 -0.5001,-0.5 h -13 a 0.49999998,0.49999998 0 0 0 -0.5,0.5 z"
       id="path22406-1" />
    <path
       inkscape:connector-curvature="0"
       style="font-size:12px;vector-effect:non-scaling-stroke;fill:none;fill-rule:evenodd;stroke:#000000;stroke-width:0.25400001;stroke-linecap:round;stroke-linejoin:round;stroke-miterlimit:4;stroke-dasharray:none;shape-rendering:crispEdges"
       d="m 363.06459,463.55698 a 0.49999998,0.49999998 0 0 0 0.5001,0.5 h 12.9999 a 0.49999998,0.49999998 0 0 0 0.5001,-0.5 v -13.0001 a 0.49999998,0.49999998 0 0 0 -0.5001,-0.5 h -12.9999 a 0.49999998,0.49999998 0 0 0 -0.5001,0.5 z"
       id="path22404-7" />
    <path
       inkscape:connector-curvature="0"
       style="font-size:12px;vector-effect:non-scaling-stroke;fill:none;fill-rule:evenodd;stroke:#000000;stroke-width:0.25400001;stroke-linecap:round;stroke-linejoin:round;stroke-miterlimit:4;stroke-dasharray:none;shape-rendering:crispEdges"
       d="m 552.42159,463.55698 a 0.49999998,0.49999998 0 0 0 0.5001,0.5 h 12.9999 a 0.49999998,0.49999998 0 0 0 0.5,-0.5 v -13.0001 a 0.49999998,0.49999998 0 0 0 -0.5,-0.5 h -12.9999 a 0.49999998,0.49999998 0 0 0 -0.5001,0.5 z"
       id="path22402-5" />
    <path
       inkscape:connector-curvature="0"
       style="font-size:12px;vector-effect:non-scaling-stroke;fill:none;fill-rule:evenodd;stroke:#000000;stroke-width:0.25400001;stroke-linecap:round;stroke-linejoin:round;stroke-miterlimit:4;stroke-dasharray:none;shape-rendering:crispEdges"
       d="m 571.97189,450.05688 a 0.49999998,0.49999998 0 0 0 -0.5003,0.5003 v 12.9997 a 0.49999998,0.49999998 0 0 0 0.5003,0.5002 h 0.5865 v 0.4998 a 0.49999998,0.49999998 0 0 0 0.5002,0.5002 h 6.0002 a 0.49999998,0.49999998 0 0 0 0.4997,-0.5002 v -0.4998 h 1.9384 3.4747 6.0503 3.4747 1.9379 v 0.4998 a 0.49999998,0.49999998 0 0 0 0.50021,0.5002 h 6.00009 a 0.49999998,0.49999998 0 0 0 0.49969,-0.5002 v -0.4998 h 0.58711 a 0.49999998,0.49999998 0 0 0 0.5002,-0.5002 v -12.9997 a 0.49999998,0.49999998 0 0 0 -0.5002,-0.5003 h -1.0868 -6.00009 -2.43811 -3.4747 -6.0503 -3.4747 -2.4381 -6.0002 z"
       id="path22400-6" />
    <path
       inkscape:connector-curvature="0"
       style="font-size:12px;vector-effect:non-scaling-stroke;fill:none;fill-rule:evenodd;stroke:#000000;stroke-width:0.25400001;stroke-linecap:round;stroke-linejoin:round;stroke-miterlimit:4;stroke-dasharray:none;shape-rendering:crispEdges"
       d="m 343.91939,482.60696 a 0.49999998,0.49999998 0 0 0 0.5,0.5 h 13 a 0.49999998,0.49999998 0 0 0 0.5,-0.5 v -13.0001 a 0.49999998,0.49999998 0 0 0 -0.5,-0.5 h -13 a 0.49999998,0.49999998 0 0 0 -0.5,0.5 z"
       id="path22394-5" />
    <path
       inkscape:connector-curvature="0"
       style="font-size:12px;vector-effect:non-scaling-stroke;fill:none;fill-rule:evenodd;stroke:#000000;stroke-width:0.25400001;stroke-linecap:round;stroke-linejoin:round;stroke-miterlimit:4;stroke-dasharray:none;shape-rendering:crispEdges"
       d="m 365.35059,482.60696 a 0.49999998,0.49999998 0 0 0 0.5,0.5 h 13 a 0.49999998,0.49999998 0 0 0 0.5001,-0.5 v -13.0001 a 0.49999998,0.49999998 0 0 0 -0.5001,-0.5 h -13 a 0.49999998,0.49999998 0 0 0 -0.5,0.5 z"
       id="path22392-4" />
    <path
       inkscape:connector-curvature="0"
       style="font-size:12px;vector-effect:non-scaling-stroke;fill:none;fill-rule:evenodd;stroke:#000000;stroke-width:0.25400001;stroke-linecap:round;stroke-linejoin:round;stroke-miterlimit:4;stroke-dasharray:none;shape-rendering:crispEdges"
       d="m 559.47009,482.60696 a 0.49999998,0.49999998 0 0 0 0.5,0.5 h 13 a 0.49999998,0.49999998 0 0 0 0.5001,-0.5 v -13.0001 a 0.49999998,0.49999998 0 0 0 -0.5001,-0.5 h -13 a 0.49999998,0.49999998 0 0 0 -0.5,0.5 z"
       id="path22390-2" />
    <path
       inkscape:connector-curvature="0"
       style="font-size:12px;vector-effect:non-scaling-stroke;fill:none;fill-rule:evenodd;stroke:#000000;stroke-width:0.25400001;stroke-linecap:round;stroke-linejoin:round;stroke-miterlimit:4;stroke-dasharray:none;shape-rendering:crispEdges"
       d="m 585.66389,482.60696 a 0.49999998,0.49999998 0 0 0 0.5,0.5 h 13.00001 a 0.49999998,0.49999998 0 0 0 0.49998,-0.5 v -13.0001 a 0.49999998,0.49999998 0 0 0 -0.49998,-0.5 h -13.00001 a 0.49999998,0.49999998 0 0 0 -0.5,0.5 z"
       id="path22388-2" />
    <path
       inkscape:connector-curvature="0"
       style="font-size:12px;vector-effect:non-scaling-stroke;fill:none;fill-rule:evenodd;stroke:#000000;stroke-width:0.25400001;stroke-linecap:round;stroke-linejoin:round;stroke-miterlimit:4;stroke-dasharray:none;shape-rendering:crispEdges"
       d="m 345.82439,501.65696 a 0.49999998,0.49999998 0 0 0 0.5,0.5 h 13 a 0.49999998,0.49999998 0 0 0 0.5,-0.5 v -13.0001 a 0.49999998,0.49999998 0 0 0 -0.5,-0.5 h -13 a 0.49999998,0.49999998 0 0 0 -0.5,0.5 z"
       id="path22386-1" />
    <path
       inkscape:connector-curvature="0"
       style="font-size:12px;vector-effect:non-scaling-stroke;fill:none;fill-rule:evenodd;stroke:#000000;stroke-width:0.25400001;stroke-linecap:round;stroke-linejoin:round;stroke-miterlimit:4;stroke-dasharray:none;shape-rendering:crispEdges"
       d="m 372.01809,501.65696 a 0.49999998,0.49999998 0 0 0 0.5,0.5 h 13 a 0.49999998,0.49999998 0 0 0 0.5001,-0.5 v -13.0001 a 0.49999998,0.49999998 0 0 0 -0.5001,-0.5 h -13 a 0.49999998,0.49999998 0 0 0 -0.5,0.5 z"
       id="path22384-7" />
    <path
       inkscape:connector-curvature="0"
       style="font-size:12px;vector-effect:non-scaling-stroke;fill:none;fill-rule:evenodd;stroke:#000000;stroke-width:0.25400001;stroke-linecap:round;stroke-linejoin:round;stroke-miterlimit:4;stroke-dasharray:none;shape-rendering:crispEdges"
       d="m 552.42159,501.65696 a 0.49999998,0.49999998 0 0 0 0.5001,0.5 h 12.9999 a 0.49999998,0.49999998 0 0 0 0.5,-0.5 v -13.0001 a 0.49999998,0.49999998 0 0 0 -0.5,-0.5 h -12.9999 a 0.49999998,0.49999998 0 0 0 -0.5001,0.5 z"
       id="path22382-2" />
    <path
       inkscape:connector-curvature="0"
       style="font-size:12px;vector-effect:non-scaling-stroke;fill:none;fill-rule:evenodd;stroke:#000000;stroke-width:0.25400001;stroke-linecap:round;stroke-linejoin:round;stroke-miterlimit:4;stroke-dasharray:none;shape-rendering:crispEdges"
       d="m 571.47159,501.65696 a 0.49999998,0.49999998 0 0 0 0.5001,0.5 h 12.9999 a 0.49999998,0.49999998 0 0 0 0.5,-0.5 v -13.0001 a 0.49999998,0.49999998 0 0 0 -0.5,-0.5 h -12.9999 a 0.49999998,0.49999998 0 0 0 -0.5001,0.5 z"
       id="path22380-4" />
    <path
       inkscape:connector-curvature="0"
       style="font-size:12px;vector-effect:non-scaling-stroke;fill:none;fill-rule:evenodd;stroke:#000000;stroke-width:0.25400001;stroke-linecap:round;stroke-linejoin:round;stroke-miterlimit:4;stroke-dasharray:none;shape-rendering:crispEdges"
       d="m 592.90289,501.65696 a 0.49999998,0.49999998 0 0 0 0.5,0.5 h 13.00001 a 0.49999998,0.49999998 0 0 0 0.49998,-0.5 v -13.0001 a 0.49999998,0.49999998 0 0 0 -0.49998,-0.5 h -13.00001 a 0.49999998,0.49999998 0 0 0 -0.5,0.5 z"
       id="path22378-1" />
    <path
       inkscape:connector-curvature="0"
       style="font-size:12px;vector-effect:non-scaling-stroke;fill:none;fill-rule:evenodd;stroke:#000000;stroke-width:0.25400001;stroke-linecap:round;stroke-linejoin:round;stroke-miterlimit:4;stroke-dasharray:none;shape-rendering:crispEdges"
       d="m 345.82439,520.70696 a 0.49999998,0.49999998 0 0 0 0.5,0.5 h 13 a 0.49999998,0.49999998 0 0 0 0.5,-0.5 v -13.0001 a 0.49999998,0.49999998 0 0 0 -0.5,-0.4999 h -13 a 0.49999998,0.49999998 0 0 0 -0.5,0.4999 z"
       id="path22376-6" />
    <path
       inkscape:connector-curvature="0"
       style="font-size:12px;vector-effect:non-scaling-stroke;fill:none;fill-rule:evenodd;stroke:#000000;stroke-width:0.25400001;stroke-linecap:round;stroke-linejoin:round;stroke-miterlimit:4;stroke-dasharray:none;shape-rendering:crispEdges"
       d="m 367.25559,520.70696 a 0.49999998,0.49999998 0 0 0 0.5,0.5 h 13 a 0.49999998,0.49999998 0 0 0 0.5001,-0.5 v -13.0001 a 0.49999998,0.49999998 0 0 0 -0.5001,-0.4999 h -13 a 0.49999998,0.49999998 0 0 0 -0.5,0.4999 z"
       id="path22374-5" />
    <path
       inkscape:connector-curvature="0"
       style="font-size:12px;vector-effect:non-scaling-stroke;fill:none;fill-rule:evenodd;stroke:#000000;stroke-width:0.25400001;stroke-linecap:round;stroke-linejoin:round;stroke-miterlimit:4;stroke-dasharray:none;shape-rendering:crispEdges"
       d="m 566.70909,520.70696 a 0.49999998,0.49999998 0 0 0 0.5,0.5 h 13 a 0.49999998,0.49999998 0 0 0 0.5001,-0.5 v -13.0001 a 0.49999998,0.49999998 0 0 0 -0.5001,-0.4999 h -13 a 0.49999998,0.49999998 0 0 0 -0.5,0.4999 z"
       id="path22372-7" />
    <path
       inkscape:connector-curvature="0"
       style="font-size:12px;vector-effect:non-scaling-stroke;fill:none;fill-rule:evenodd;stroke:#000000;stroke-width:0.25400001;stroke-linecap:round;stroke-linejoin:round;stroke-miterlimit:4;stroke-dasharray:none;shape-rendering:crispEdges"
       d="m 588.14039,520.70696 a 0.49999998,0.49999998 0 0 0 0.5,0.5 h 13.00001 a 0.49999998,0.49999998 0 0 0 0.49998,-0.5 v -13.0001 a 0.49999998,0.49999998 0 0 0 -0.49998,-0.4999 h -13.00001 a 0.49999998,0.49999998 0 0 0 -0.5,0.4999 z"
       id="path22370-8" />
    <circle
       style="fill:none;fill-opacity:1;stroke:#000000;stroke-width:0.25399998;stroke-linecap:round;stroke-linejoin:round;stroke-miterlimit:4;stroke-dasharray:none;stroke-dashoffset:0;stroke-opacity:1;shape-rendering:crispEdges"
       id="path14497-5-1-9-97"
       cx="336.15576"
       cy="442.18195"
       r="1.6" />
    <circle
       style="fill:none;fill-opacity:1;stroke:#000000;stroke-width:0.25399998;stroke-linecap:round;stroke-linejoin:round;stroke-miterlimit:4;stroke-dasharray:none;stroke-dashoffset:0;stroke-opacity:1;shape-rendering:crispEdges"
       id="path14497-8-50-5"
       cx="336.15576"
       cy="527.73187"
       r="1.6" />
    <circle
       style="fill:none;fill-opacity:1;stroke:#000000;stroke-width:0.25399998;stroke-linecap:round;stroke-linejoin:round;stroke-miterlimit:4;stroke-dasharray:none;stroke-dashoffset:0;stroke-opacity:1;shape-rendering:crispEdges"
       id="path14497-2-4-4-3"
       cx="611.80847"
       cy="527.73187"
       r="1.6" />
    <circle
       style="fill:none;fill-opacity:1;stroke:#000000;stroke-width:0.25399998;stroke-linecap:round;stroke-linejoin:round;stroke-miterlimit:4;stroke-dasharray:none;stroke-dashoffset:0;stroke-opacity:1;shape-rendering:crispEdges"
       id="path14497-23-5-8-8"
       cx="611.80847"
       cy="442.18195"
       r="1.6" />
    <path
       style="fill:none;stroke:#000000;stroke-width:0.25400001;stroke-linecap:butt;stroke-linejoin:miter;stroke-miterlimit:4;stroke-dasharray:none;stroke-opacity:1;shape-rendering:crispEdges"
       d="m 332.15579,441.18196 c 0,-1.5 1.5,-3 3,-3 h 277.6527 c 1.5,0 3,1.5 3,3 v 87.5498 c 0,1.5 -1.5,3 -3,3 h -55.9276 l -79.2216,11.1339 h -14.5501 l -79.4426,-11.1339 h -48.5108 c -1.5,0 -3,-1.5 -3,-3 z"
       id="path14440-3-6-3"
       inkscape:connector-curvature="0"
       sodipodi:nodetypes="ccccccccccccc" />
    <circle
       style="fill:none;fill-opacity:1;stroke:#000000;stroke-width:0.25399998;stroke-linecap:round;stroke-linejoin:round;stroke-miterlimit:4;stroke-dasharray:none;stroke-dashoffset:0;stroke-opacity:1;shape-rendering:crispEdges"
       id="path14497-23-8-4"
       cx="541.09631"
       cy="442.18195"
       r="1.6" />
    <circle
       style="fill:none;fill-opacity:1;stroke:#000000;stroke-width:0.25399998;stroke-linecap:round;stroke-linejoin:round;stroke-miterlimit:4;stroke-dasharray:none;stroke-dashoffset:0;stroke-opacity:1;shape-rendering:crispEdges"
       id="path14497-23-9-8"
       cx="403.27014"
       cy="442.18195"
       r="1.6" />
    <circle
       style="fill:none;fill-opacity:1;stroke:#000000;stroke-width:0.25399998;stroke-linecap:round;stroke-linejoin:round;stroke-miterlimit:4;stroke-dasharray:none;stroke-dashoffset:0;stroke-opacity:1;shape-rendering:crispEdges"
       id="path14497-23-8-3-8"
       cx="403.27014"
       cy="530.44019"
       r="1.6" />
    <circle
       style="fill:none;fill-opacity:1;stroke:#000000;stroke-width:0.25399998;stroke-linecap:round;stroke-linejoin:round;stroke-miterlimit:4;stroke-dasharray:none;stroke-dashoffset:0;stroke-opacity:1;shape-rendering:crispEdges"
       id="path14497-23-8-7-1-8-8"
       cx="541.09631"
       cy="529.91095"
       r="1.6" />
    <circle
       style="fill:none;fill-opacity:1;stroke:#000000;stroke-width:0.25399998;stroke-linecap:round;stroke-linejoin:round;stroke-miterlimit:4;stroke-dasharray:none;stroke-dashoffset:0;stroke-opacity:1;shape-rendering:crispEdges"
       id="path10964-3-1"
       cx="608.93121"
       cy="459.54132"
       r="1" />
    <circle
       style="fill:none;fill-opacity:1;stroke:#000000;stroke-width:0.25399998;stroke-linecap:round;stroke-linejoin:round;stroke-miterlimit:4;stroke-dasharray:none;stroke-dashoffset:0;stroke-opacity:1;shape-rendering:crispEdges"
       id="path10964-7-2"
       cx="608.93152"
       cy="455.73129"
       r="1" />
    <circle
       style="fill:none;fill-opacity:1;stroke:#000000;stroke-width:0.25399998;stroke-linecap:round;stroke-linejoin:round;stroke-miterlimit:4;stroke-dasharray:none;stroke-dashoffset:0;stroke-opacity:1;shape-rendering:crispEdges"
       id="path10964-35-7"
       cx="608.93152"
       cy="451.93021"
       r="1" />
  </g>
</svg>
