<?xml version="1.0" encoding="UTF-8" standalone="no"?>
<!-- Created with Inkscape (http://www.inkscape.org/) -->

<svg
   xmlns:dc="http://purl.org/dc/elements/1.1/"
   xmlns:cc="http://creativecommons.org/ns#"
   xmlns:rdf="http://www.w3.org/1999/02/22-rdf-syntax-ns#"
   xmlns:svg="http://www.w3.org/2000/svg"
   xmlns="http://www.w3.org/2000/svg"
   xmlns:sodipodi="http://sodipodi.sourceforge.net/DTD/sodipodi-0.dtd"
   xmlns:inkscape="http://www.inkscape.org/namespaces/inkscape"
   width="349.63889mm"
   height="127.76949mm"
   viewBox="0 0 349.63889 127.76949"
   version="1.1"
   id="svg7640"
   inkscape:version="0.92.5 (2060ec1f9f, 2020-04-08)"
   sodipodi:docname="synthesis_rev1_plate.svg">
  <defs
     id="defs7634" />
  <sodipodi:namedview
     id="base"
     pagecolor="#ffffff"
     bordercolor="#666666"
     borderopacity="1.0"
     inkscape:pageopacity="0.0"
     inkscape:pageshadow="2"
     inkscape:zoom="1.4"
     inkscape:cx="661.71417"
     inkscape:cy="373.81917"
     inkscape:document-units="mm"
     inkscape:current-layer="layer1"
     showgrid="false"
     inkscape:window-width="3840"
     inkscape:window-height="2092"
     inkscape:window-x="0"
     inkscape:window-y="31"
     inkscape:window-maximized="1" />
  <metadata
     id="metadata7637">
    <rdf:RDF>
      <cc:Work
         rdf:about="">
        <dc:format>image/svg+xml</dc:format>
        <dc:type
           rdf:resource="http://purl.org/dc/dcmitype/StillImage" />
        <dc:title></dc:title>
      </cc:Work>
    </rdf:RDF>
  </metadata>
  <g
     inkscape:label="Layer 1"
     inkscape:groupmode="layer"
     id="layer1"
     transform="translate(760.68253,-75.87716)">
    <path
       style="font-size:12px;vector-effect:non-scaling-stroke;fill:none;fill-rule:evenodd;stroke:#000000;stroke-width:0.25000001mm;stroke-linecap:round"
       d="m -481.41994,102.59089 a 0.50000001,0.50000001 0 0 0 0.49998,0.5 h 0.58701 v 0.5 a 0.50000001,0.50000001 0 0 0 0.50001,0.5 h 5.99998 a 0.50000001,0.50000001 0 0 0 0.50001,-0.5 v -0.5 h 1.93799 3.47502 6.04998 3.47502 1.93799 v 0.5 a 0.50000001,0.50000001 0 0 0 0.50001,0.5 h 5.99998 a 0.50000001,0.50000001 0 0 0 0.50001,-0.5 v -0.5 h 0.58701 a 0.50000001,0.50000001 0 0 0 0.50001,-0.5 V 89.590892 a 0.50000001,0.50000001 0 0 0 -0.50001,-0.5 h -1.08702 -5.99998 -2.438 -3.47502 -6.04998 -3.47502 -2.438 -5.99998 -1.08702 a 0.50000001,0.50000001 0 0 0 -0.49998,0.5 z"
       id="path17007"
       inkscape:connector-curvature="0" />
    <path
       style="font-size:12px;vector-effect:non-scaling-stroke;fill:none;fill-rule:evenodd;stroke:#000000;stroke-width:0.25000001mm;stroke-linecap:round"
       d="m -631.37455,113.34159 a 0.50000001,0.50000001 0 0 0 0.4056,0.57923 l 12.8025,2.25743 a 0.50000001,0.50000001 0 0 0 0.5792,-0.40558 l 2.2574,-12.8025 a 0.50000001,0.50000001 0 0 0 -0.4056,-0.57923 l -12.8025,-2.25743 a 0.50000001,0.50000001 0 0 0 -0.5792,0.40558 z"
       id="path17005"
       inkscape:connector-curvature="0" />
    <path
       style="font-size:12px;vector-effect:non-scaling-stroke;fill:none;fill-rule:evenodd;stroke:#000000;stroke-width:0.25000001mm;stroke-linecap:round"
       d="m -596.17165,113.40269 a 0.50000001,0.50000001 0 0 0 0.5792,0.40557 l 12.8025,-2.25742 a 0.50000001,0.50000001 0 0 0 0.4056,-0.57923 l -2.2574,-12.802498 a 0.50000001,0.50000001 0 0 0 -0.5792,-0.40558 l -12.8026,2.257428 a 0.50000001,0.50000001 0 0 0 -0.4055,0.57922 z"
       id="path17003"
       inkscape:connector-curvature="0" />
    <path
       style="font-size:12px;vector-effect:non-scaling-stroke;fill:none;fill-rule:evenodd;stroke:#000000;stroke-width:0.25000001mm;stroke-linecap:round"
       d="m -577.41105,110.09469 a 0.50000001,0.50000001 0 0 0 0.5792,0.40558 l 12.8025,-2.25743 a 0.50000001,0.50000001 0 0 0 0.4056,-0.57923 l -2.2574,-12.802498 a 0.50000001,0.50000001 0 0 0 -0.5793,-0.40558 l -12.8025,2.25743 a 0.50000001,0.50000001 0 0 0 -0.4055,0.57922 z"
       id="path17001"
       inkscape:connector-curvature="0" />
    <path
       style="font-size:12px;vector-effect:non-scaling-stroke;fill:none;fill-rule:evenodd;stroke:#000000;stroke-width:0.25000001mm;stroke-linecap:round"
       d="m -558.65045,106.78669 a 0.50000001,0.50000001 0 0 0 0.5792,0.40558 l 12.8025,-2.25743 a 0.50000001,0.50000001 0 0 0 0.4056,-0.57923 l -2.2574,-12.802498 a 0.50000001,0.50000001 0 0 0 -0.5793,-0.40558 l -12.8025,2.25743 a 0.50000001,0.50000001 0 0 0 -0.4056,0.57923 z"
       id="path16999"
       inkscape:connector-curvature="0" />
    <path
       style="font-size:12px;vector-effect:non-scaling-stroke;fill:none;fill-rule:evenodd;stroke:#000000;stroke-width:0.25000001mm;stroke-linecap:round"
       d="m -539.88985,103.47869 a 0.50000001,0.50000001 0 0 0 0.5792,0.40558 l 12.80251,-2.25743 a 0.50000001,0.50000001 0 0 0 0.40559,-0.57922 l -2.2575,-12.802508 a 0.50000001,0.50000001 0 0 0 -0.5792,-0.40558 l -12.8025,2.25743 a 0.50000001,0.50000001 0 0 0 -0.4056,0.57923 z"
       id="path16997"
       inkscape:connector-curvature="0" />
    <path
       style="font-size:12px;vector-effect:non-scaling-stroke;fill:none;fill-rule:evenodd;stroke:#000000;stroke-width:0.25000001mm;stroke-linecap:round"
       d="m -545.96215,123.89328 a 0.50000001,0.50000001 0 0 0 0.5792,0.40558 l 12.8025,-2.25743 a 0.50000001,0.50000001 0 0 0 0.4056,-0.57923 l -2.2575,-12.8025 a 0.50000001,0.50000001 0 0 0 -0.5792,-0.40558 l -12.8025,2.25743 a 0.50000001,0.50000001 0 0 0 -0.4056,0.57923 z"
       id="path16995"
       inkscape:connector-curvature="0" />
    <path
       style="font-size:12px;vector-effect:non-scaling-stroke;fill:none;fill-rule:evenodd;stroke:#000000;stroke-width:0.25000001mm;stroke-linecap:round"
       d="m -564.72275,127.20127 a 0.50000001,0.50000001 0 0 0 0.5792,0.40558 l 12.80251,-2.25742 a 0.50000001,0.50000001 0 0 0 0.40559,-0.57923 l -2.2574,-12.8025 a 0.50000001,0.50000001 0 0 0 -0.5793,-0.40558 l -12.8025,2.25742 a 0.50000001,0.50000001 0 0 0 -0.4056,0.57923 z"
       id="path16993"
       inkscape:connector-curvature="0" />
    <path
       style="font-size:12px;vector-effect:non-scaling-stroke;fill:none;fill-rule:evenodd;stroke:#000000;stroke-width:0.25000001mm;stroke-linecap:round"
       d="m -602.24395,133.81727 a 0.50000001,0.50000001 0 0 0 0.5792,0.40558 l 12.8025,-2.25743 a 0.50000001,0.50000001 0 0 0 0.4056,-0.57922 l -2.2574,-12.80251 a 0.50000001,0.50000001 0 0 0 -0.5792,-0.40558 l -12.8025,2.25743 a 0.50000001,0.50000001 0 0 0 -0.4056,0.57923 z"
       id="path16991"
       inkscape:connector-curvature="0" />
    <path
       style="font-size:12px;vector-effect:non-scaling-stroke;fill:none;fill-rule:evenodd;stroke:#000000;stroke-width:0.25000001mm;stroke-linecap:round"
       d="m -583.48335,130.50927 a 0.50000001,0.50000001 0 0 0 0.5792,0.40558 l 12.8025,-2.25743 a 0.50000001,0.50000001 0 0 0 0.4056,-0.57922 l -2.2574,-12.80251 a 0.50000001,0.50000001 0 0 0 -0.5793,-0.40558 l -12.8025,2.25743 a 0.50000001,0.50000001 0 0 0 -0.4055,0.57923 z"
       id="path16989"
       inkscape:connector-curvature="0" />
    <path
       style="font-size:12px;vector-effect:non-scaling-stroke;fill:none;fill-rule:evenodd;stroke:#000000;stroke-width:0.25000001mm;stroke-linecap:round"
       d="m -634.73235,170.78114 a 0.50000001,0.50000001 0 0 0 0.4056,0.57923 l 12.8025,2.25742 a 0.50000001,0.50000001 0 0 0 0.5792,-0.40558 l 2.2574,-12.8025 a 0.50000001,0.50000001 0 0 0 -0.4056,-0.57923 l -12.8025,-2.25742 a 0.50000001,0.50000001 0 0 0 -0.5792,0.40558 z"
       id="path16987"
       inkscape:connector-curvature="0" />
    <path
       style="font-size:12px;vector-effect:non-scaling-stroke;fill:none;fill-rule:evenodd;stroke:#000000;stroke-width:0.25000001mm;stroke-linecap:round"
       d="m -638.04035,189.54173 a 0.50000001,0.50000001 0 0 0 0.4056,0.57922 l 12.8025,2.25743 a 0.50000001,0.50000001 0 0 0 0.5792,-0.40558 l 2.2574,-12.8025 a 0.50000001,0.50000001 0 0 0 -0.4056,-0.57923 l -12.8025,-2.25743 a 0.50000001,0.50000001 0 0 0 -0.5792,0.40558 z"
       id="path16985"
       inkscape:connector-curvature="0" />
    <path
       style="font-size:12px;vector-effect:non-scaling-stroke;fill:none;fill-rule:evenodd;stroke:#000000;stroke-width:0.25000001mm;stroke-linecap:round"
       d="m -594.24585,151.75086 a 0.50000001,0.50000001 0 0 0 0.5793,0.40558 l 12.8025,-2.25743 a 0.50000001,0.50000001 0 0 0 0.4056,-0.57923 l -2.2575,-12.8025 a 0.50000001,0.50000001 0 0 0 -0.5792,-0.40558 l -12.8025,2.25743 a 0.50000001,0.50000001 0 0 0 -0.4056,0.57923 z"
       id="path16983"
       inkscape:connector-curvature="0" />
    <path
       style="font-size:12px;vector-effect:non-scaling-stroke;fill:none;fill-rule:evenodd;stroke:#000000;stroke-width:0.25000001mm;stroke-linecap:round"
       d="m -575.48525,148.44286 a 0.50000001,0.50000001 0 0 0 0.5793,0.40558 l 12.8025,-2.25743 a 0.50000001,0.50000001 0 0 0 0.4055,-0.57923 l -2.2574,-12.8025 a 0.50000001,0.50000001 0 0 0 -0.5792,-0.40558 l -12.8025,2.25743 a 0.50000001,0.50000001 0 0 0 -0.4056,0.57923 z"
       id="path16981"
       inkscape:connector-curvature="0" />
    <path
       style="font-size:12px;vector-effect:non-scaling-stroke;fill:none;fill-rule:evenodd;stroke:#000000;stroke-width:0.25000001mm;stroke-linecap:round"
       d="m -556.72465,145.13486 a 0.50000001,0.50000001 0 0 0 0.5792,0.40558 l 12.80251,-2.25743 a 0.50000001,0.50000001 0 0 0 0.40559,-0.57922 l -2.25739,-12.80251 a 0.50000001,0.50000001 0 0 0 -0.57921,-0.40558 l -12.8025,2.25743 a 0.50000001,0.50000001 0 0 0 -0.40559,0.57923 z"
       id="path16979"
       inkscape:connector-curvature="0" />
    <path
       style="font-size:12px;vector-effect:non-scaling-stroke;fill:none;fill-rule:evenodd;stroke:#000000;stroke-width:0.25000001mm;stroke-linecap:round"
       d="m -537.96404,141.82686 a 0.50000001,0.50000001 0 0 0 0.57919,0.40558 l 12.8025,-2.25742 a 0.50000001,0.50000001 0 0 0 0.4056,-0.57923 l -2.2574,-12.8025 a 0.50000001,0.50000001 0 0 0 -0.5792,-0.40558 l -12.8025,2.25742 a 0.50000001,0.50000001 0 0 0 -0.4056,0.57923 z"
       id="path16977"
       inkscape:connector-curvature="0" />
    <path
       style="font-size:12px;vector-effect:non-scaling-stroke;fill:none;fill-rule:evenodd;stroke:#000000;stroke-width:0.25000001mm;stroke-linecap:round"
       d="m -605.00825,172.99244 a 0.50000001,0.50000001 0 0 0 0.5792,0.40558 l 12.8025,-2.25742 a 0.50000001,0.50000001 0 0 0 0.4056,-0.57923 l -2.2574,-12.8025 a 0.50000001,0.50000001 0 0 0 -0.5792,-0.40558 l -12.8025,2.25742 a 0.50000001,0.50000001 0 0 0 -0.4056,0.57923 z"
       id="path16975"
       inkscape:connector-curvature="0" />
    <path
       style="font-size:12px;vector-effect:non-scaling-stroke;fill:none;fill-rule:evenodd;stroke:#000000;stroke-width:0.25000001mm;stroke-linecap:round"
       d="m -586.24765,169.68445 a 0.50000001,0.50000001 0 0 0 0.5792,0.40557 l 12.8025,-2.25742 a 0.50000001,0.50000001 0 0 0 0.4056,-0.57923 l -2.2574,-12.8025 a 0.50000001,0.50000001 0 0 0 -0.5793,-0.40558 l -12.8025,2.25743 a 0.50000001,0.50000001 0 0 0 -0.4055,0.57922 z"
       id="path16973"
       inkscape:connector-curvature="0" />
    <path
       style="font-size:12px;vector-effect:non-scaling-stroke;fill:none;fill-rule:evenodd;stroke:#000000;stroke-width:0.25000001mm;stroke-linecap:round"
       d="m -567.48705,166.37645 a 0.50000001,0.50000001 0 0 0 0.5792,0.40558 l 12.8025,-2.25743 a 0.50000001,0.50000001 0 0 0 0.4056,-0.57923 l -2.2574,-12.8025 a 0.50000001,0.50000001 0 0 0 -0.5793,-0.40558 l -12.8025,2.25743 a 0.50000001,0.50000001 0 0 0 -0.4055,0.57923 z"
       id="path16971"
       inkscape:connector-curvature="0" />
    <path
       style="font-size:12px;vector-effect:non-scaling-stroke;fill:none;fill-rule:evenodd;stroke:#000000;stroke-width:0.25000001mm;stroke-linecap:round"
       d="m -548.72645,163.06845 a 0.50000001,0.50000001 0 0 0 0.5792,0.40558 l 12.8025,-2.25743 a 0.50000001,0.50000001 0 0 0 0.4056,-0.57922 l -2.25749,-12.8025 a 0.50000001,0.50000001 0 0 0 -0.57921,-0.40558 l -12.8025,2.25742 a 0.50000001,0.50000001 0 0 0 -0.4056,0.57923 z"
       id="path16969"
       inkscape:connector-curvature="0" />
    <path
       style="font-size:12px;vector-effect:non-scaling-stroke;fill:none;fill-rule:evenodd;stroke:#000000;stroke-width:0.25000001mm;stroke-linecap:round"
       d="m -585.28475,188.85853 a 0.50000001,0.50000001 0 0 0 0.5792,0.40558 l 12.8025,-2.25742 a 0.50000001,0.50000001 0 0 0 0.4056,-0.57923 l -2.2574,-12.8025 a 0.50000001,0.50000001 0 0 0 -0.5792,-0.40558 l -12.8025,2.25742 a 0.50000001,0.50000001 0 0 0 -0.4056,0.57923 z"
       id="path16967"
       inkscape:connector-curvature="0" />
    <path
       style="font-size:12px;vector-effect:non-scaling-stroke;fill:none;fill-rule:evenodd;stroke:#000000;stroke-width:0.25000001mm;stroke-linecap:round"
       d="m -547.76354,182.24254 a 0.50000001,0.50000001 0 0 0 0.57919,0.40558 l 12.8025,-2.25743 a 0.50000001,0.50000001 0 0 0 0.40561,-0.57923 l -2.25741,-12.8025 a 0.50000001,0.50000001 0 0 0 -0.5793,-0.40558 l -12.8025,2.25743 a 0.50000001,0.50000001 0 0 0 -0.4055,0.57923 z"
       id="path16965"
       inkscape:connector-curvature="0" />
    <path
       style="font-size:12px;vector-effect:non-scaling-stroke;fill:none;fill-rule:evenodd;stroke:#000000;stroke-width:0.25000001mm;stroke-linecap:round"
       d="m -642.18685,130.77896 a 0.50000001,0.50000001 0 0 0 0.4056,0.57923 l 12.8025,2.25743 a 0.50000001,0.50000001 0 0 0 0.5792,-0.40558 l 2.2575,-12.8025 a 0.50000001,0.50000001 0 0 0 -0.4056,-0.57923 l -12.8025,-2.25743 a 0.50000001,0.50000001 0 0 0 -0.5792,0.40558 z"
       id="path16963"
       inkscape:connector-curvature="0" />
    <path
       style="font-size:12px;vector-effect:non-scaling-stroke;fill:none;fill-rule:evenodd;stroke:#000000;stroke-width:0.25000001mm;stroke-linecap:round"
       d="m -650.13515,110.03358 a 0.50000001,0.50000001 0 0 0 0.4056,0.57923 l 12.8025,2.25742 a 0.50000001,0.50000001 0 0 0 0.5792,-0.40558 l 2.2574,-12.802498 a 0.50000001,0.50000001 0 0 0 -0.4056,-0.57923 l -12.8025,-2.25742 a 0.50000001,0.50000001 0 0 0 -0.5792,0.40558 z"
       id="path16961"
       inkscape:connector-curvature="0" />
    <path
       style="font-size:12px;vector-effect:non-scaling-stroke;fill:none;fill-rule:evenodd;stroke:#000000;stroke-width:0.25000001mm;stroke-linecap:round"
       d="m -640.80465,150.36655 a 0.50000001,0.50000001 0 0 0 0.4056,0.57923 l 12.8025,2.25742 a 0.50000001,0.50000001 0 0 0 0.5792,-0.40558 l 2.2574,-12.8025 a 0.50000001,0.50000001 0 0 0 -0.4056,-0.57922 l -12.8025,-2.25743 a 0.50000001,0.50000001 0 0 0 -0.5792,0.40558 z"
       id="path16959"
       inkscape:connector-curvature="0" />
    <path
       style="font-size:12px;vector-effect:non-scaling-stroke;fill:none;fill-rule:evenodd;stroke:#000000;stroke-width:0.25000001mm;stroke-linecap:round"
       d="m -687.65634,103.41758 a 0.50000001,0.50000001 0 0 0 0.4056,0.57923 l 12.8025,2.25743 a 0.50000001,0.50000001 0 0 0 0.5792,-0.40558 l 2.2574,-12.802498 a 0.50000001,0.50000001 0 0 0 -0.40551,-0.57923 l -12.80249,-2.25743 a 0.50000001,0.50000001 0 0 0 -0.5793,0.40558 z"
       id="path16957"
       inkscape:connector-curvature="0" />
    <path
       style="font-size:12px;vector-effect:non-scaling-stroke;fill:none;fill-rule:evenodd;stroke:#000000;stroke-width:0.25000001mm;stroke-linecap:round"
       d="m -668.89574,106.72558 a 0.50000001,0.50000001 0 0 0 0.4056,0.57923 l 12.80249,2.25743 a 0.50000001,0.50000001 0 0 0 0.5792,-0.40559 l 2.2574,-12.802498 a 0.50000001,0.50000001 0 0 0 -0.4055,-0.57922 l -12.80249,-2.25743 a 0.50000001,0.50000001 0 0 0 -0.5793,0.40558 z"
       id="path16955"
       inkscape:connector-curvature="0" />
    <path
       style="font-size:12px;vector-effect:non-scaling-stroke;fill:none;fill-rule:evenodd;stroke:#000000;stroke-width:0.25000001mm;stroke-linecap:round"
       d="m -698.46854,120.85497 a 0.50000001,0.50000001 0 0 0 0.40559,0.57923 l 12.80251,2.25742 a 0.50000001,0.50000001 0 0 0 0.5792,-0.40557 l 2.2574,-12.80251 a 0.50000001,0.50000001 0 0 0 -0.4056,-0.57922 l -12.8025,-2.25743 a 0.50000001,0.50000001 0 0 0 -0.57921,0.40558 z"
       id="path16953"
       inkscape:connector-curvature="0" />
    <path
       style="font-size:12px;vector-effect:non-scaling-stroke;fill:none;fill-rule:evenodd;stroke:#000000;stroke-width:0.25000001mm;stroke-linecap:round"
       d="m -679.70795,124.16297 a 0.50000001,0.50000001 0 0 0 0.40551,0.57923 l 12.80249,2.25742 a 0.50000001,0.50000001 0 0 0 0.5793,-0.40558 l 2.25741,-12.8025 a 0.50000001,0.50000001 0 0 0 -0.4056,-0.57922 l -12.8025,-2.25743 a 0.50000001,0.50000001 0 0 0 -0.5792,0.40558 z"
       id="path16951"
       inkscape:connector-curvature="0" />
    <path
       style="font-size:12px;vector-effect:non-scaling-stroke;fill:none;fill-rule:evenodd;stroke:#000000;stroke-width:0.25000001mm;stroke-linecap:round"
       d="m -660.94734,127.47097 a 0.50000001,0.50000001 0 0 0 0.40549,0.57922 l 12.8025,2.25743 a 0.50000001,0.50000001 0 0 0 0.5793,-0.40558 l 2.2574,-12.8025 a 0.50000001,0.50000001 0 0 0 -0.4056,-0.57923 l -12.8025,-2.25742 a 0.50000001,0.50000001 0 0 0 -0.5792,0.40558 z"
       id="path16949"
       inkscape:connector-curvature="0" />
    <path
       style="font-size:12px;vector-effect:non-scaling-stroke;fill:none;fill-rule:evenodd;stroke:#000000;stroke-width:0.25000001mm;stroke-linecap:round"
       d="m -697.08645,140.44256 a 0.50000001,0.50000001 0 0 0 0.40561,0.57923 l 12.8025,2.25742 a 0.50000001,0.50000001 0 0 0 0.57919,-0.40558 l 2.25751,-12.8025 a 0.50000001,0.50000001 0 0 0 -0.4056,-0.57923 l -12.8025,-2.25742 a 0.50000001,0.50000001 0 0 0 -0.5792,0.40558 z"
       id="path16947"
       inkscape:connector-curvature="0" />
    <path
       style="font-size:12px;vector-effect:non-scaling-stroke;fill:none;fill-rule:evenodd;stroke:#000000;stroke-width:0.25000001mm;stroke-linecap:round"
       d="m -678.32584,143.75056 a 0.50000001,0.50000001 0 0 0 0.4056,0.57922 l 12.8025,2.25743 a 0.50000001,0.50000001 0 0 0 0.5792,-0.40558 l 2.2574,-12.8025 a 0.50000001,0.50000001 0 0 0 -0.4055,-0.57923 l -12.8025,-2.25742 a 0.50000001,0.50000001 0 0 0 -0.57931,0.40558 z"
       id="path16945"
       inkscape:connector-curvature="0" />
    <path
       style="font-size:12px;vector-effect:non-scaling-stroke;fill:none;fill-rule:evenodd;stroke:#000000;stroke-width:0.25000001mm;stroke-linecap:round"
       d="m -659.56525,147.05855 a 0.50000001,0.50000001 0 0 0 0.4056,0.57923 l 12.8025,2.25743 a 0.50000001,0.50000001 0 0 0 0.5792,-0.40558 l 2.2574,-12.8025 a 0.50000001,0.50000001 0 0 0 -0.4055,-0.57923 l -12.8025,-2.25743 a 0.50000001,0.50000001 0 0 0 -0.5793,0.40558 z"
       id="path16943"
       inkscape:connector-curvature="0" />
    <path
       style="font-size:12px;vector-effect:non-scaling-stroke;fill:none;fill-rule:evenodd;stroke:#000000;stroke-width:0.25000001mm;stroke-linecap:round"
       d="m -691.01414,160.85714 a 0.50000001,0.50000001 0 0 0 0.4056,0.57923 l 12.8025,2.25743 a 0.50000001,0.50000001 0 0 0 0.5792,-0.40558 l 2.2575,-12.8025 a 0.50000001,0.50000001 0 0 0 -0.4056,-0.57923 l -12.8025,-2.25743 a 0.50000001,0.50000001 0 0 0 -0.57931,0.40558 z"
       id="path16941"
       inkscape:connector-curvature="0" />
    <path
       style="font-size:12px;vector-effect:non-scaling-stroke;fill:none;fill-rule:evenodd;stroke:#000000;stroke-width:0.25000001mm;stroke-linecap:round"
       d="m -672.25355,164.16514 a 0.50000001,0.50000001 0 0 0 0.40561,0.57923 l 12.80249,2.25743 a 0.50000001,0.50000001 0 0 0 0.5792,-0.40558 l 2.2574,-12.8025 a 0.50000001,0.50000001 0 0 0 -0.4055,-0.57923 l -12.80249,-2.25743 a 0.50000001,0.50000001 0 0 0 -0.5793,0.40558 z"
       id="path16939"
       inkscape:connector-curvature="0" />
    <path
       style="font-size:12px;vector-effect:non-scaling-stroke;fill:none;fill-rule:evenodd;stroke:#000000;stroke-width:0.25000001mm;stroke-linecap:round"
       d="m -653.49295,167.47314 a 0.50000001,0.50000001 0 0 0 0.4056,0.57923 l 12.8025,2.25743 a 0.50000001,0.50000001 0 0 0 0.5792,-0.40559 l 2.2574,-12.8025 a 0.50000001,0.50000001 0 0 0 -0.4055,-0.57922 l -12.8025,-2.25743 a 0.50000001,0.50000001 0 0 0 -0.5793,0.40558 z"
       id="path16937"
       inkscape:connector-curvature="0" />
    <path
       style="font-size:12px;vector-effect:non-scaling-stroke;fill:none;fill-rule:evenodd;stroke:#000000;stroke-width:0.25000001mm;stroke-linecap:round"
       d="m -694.32214,179.61773 a 0.50000001,0.50000001 0 0 0 0.4056,0.57923 l 12.8025,2.25743 a 0.50000001,0.50000001 0 0 0 0.5792,-0.40558 l 2.2575,-12.8025 a 0.50000001,0.50000001 0 0 0 -0.4056,-0.57923 l -12.8025,-2.25743 a 0.50000001,0.50000001 0 0 0 -0.5792,0.40558 z"
       id="path16935"
       inkscape:connector-curvature="0" />
    <path
       style="font-size:12px;vector-effect:non-scaling-stroke;fill:none;fill-rule:evenodd;stroke:#000000;stroke-width:0.25000001mm;stroke-linecap:round"
       d="m -666.18124,184.57973 a 0.50000001,0.50000001 0 0 0 0.4056,0.57923 l 12.80249,2.25742 a 0.50000001,0.50000001 0 0 0 0.5792,-0.40558 l 2.2574,-12.80248 a 0.50000001,0.50000001 0 0 0 -0.4055,-0.57923 l -12.80249,-2.25742 a 0.50000001,0.50000001 0 0 0 -0.5793,0.40558 z"
       id="path16933"
       inkscape:connector-curvature="0" />
    <path
       style="font-size:12px;vector-effect:non-scaling-stroke;fill:none;fill-rule:evenodd;stroke:#000000;stroke-width:0.25000001mm;stroke-linecap:round"
       d="m -706.20995,100.68587 a 0.50000001,0.50000001 0 0 0 0.50001,0.5 h 13 a 0.50000001,0.50000001 0 0 0 0.5,-0.5 V 87.685872 a 0.50000001,0.50000001 0 0 0 -0.5,-0.5 h -13 a 0.50000001,0.50000001 0 0 0 -0.50001,0.5 z"
       id="path16931"
       inkscape:connector-curvature="0" />
    <path
       style="font-size:12px;vector-effect:non-scaling-stroke;fill:none;fill-rule:evenodd;stroke:#000000;stroke-width:0.25000001mm;stroke-linecap:round"
       d="m -519.51995,100.68587 a 0.50000001,0.50000001 0 0 0 0.50001,0.5 h 12.99999 a 0.50000001,0.50000001 0 0 0 0.50001,-0.5 V 87.685872 a 0.50000001,0.50000001 0 0 0 -0.50001,-0.5 h -12.99999 a 0.50000001,0.50000001 0 0 0 -0.50001,0.5 z"
       id="path16929"
       inkscape:connector-curvature="0" />
    <path
       style="font-size:12px;vector-effect:non-scaling-stroke;fill:none;fill-rule:evenodd;stroke:#000000;stroke-width:0.25000001mm;stroke-linecap:round"
       d="m -438.55744,100.68587 a 0.50000001,0.50000001 0 0 0 0.49998,0.5 h 13.00002 a 0.50000001,0.50000001 0 0 0 0.50001,-0.5 V 87.685872 a 0.50000001,0.50000001 0 0 0 -0.50001,-0.5 h -13.00002 a 0.50000001,0.50000001 0 0 0 -0.49998,0.5 z"
       id="path16927"
       inkscape:connector-curvature="0" />
    <path
       style="font-size:12px;vector-effect:non-scaling-stroke;fill:none;fill-rule:evenodd;stroke:#000000;stroke-width:0.25000001mm;stroke-linecap:round"
       d="m -744.30994,102.59087 a 0.50000001,0.50000001 0 0 0 0.5,0.5 h 12.99999 a 0.50000001,0.50000001 0 0 0 0.50001,-0.5 V 89.590872 a 0.50000001,0.50000001 0 0 0 -0.50001,-0.5 h -12.99999 a 0.50000001,0.50000001 0 0 0 -0.5,0.5 z"
       id="path16925"
       inkscape:connector-curvature="0" />
    <path
       style="font-size:12px;vector-effect:non-scaling-stroke;fill:none;fill-rule:evenodd;stroke:#000000;stroke-width:0.25000001mm;stroke-linecap:round"
       d="m -725.25995,102.59087 a 0.50000001,0.50000001 0 0 0 0.50001,0.5 h 13 a 0.50000001,0.50000001 0 0 0 0.5,-0.5 V 89.590872 a 0.50000001,0.50000001 0 0 0 -0.5,-0.5 h -13 a 0.50000001,0.50000001 0 0 0 -0.50001,0.5 z"
       id="path16923"
       inkscape:connector-curvature="0" />
    <path
       style="font-size:12px;vector-effect:non-scaling-stroke;fill:none;fill-rule:evenodd;stroke:#000000;stroke-width:0.25000001mm;stroke-linecap:round"
       d="m -500.46995,102.59087 a 0.50000001,0.50000001 0 0 0 0.50001,0.5 h 13 a 0.50000001,0.50000001 0 0 0 0.50001,-0.5 V 89.590872 a 0.50000001,0.50000001 0 0 0 -0.50001,-0.5 h -13 a 0.50000001,0.50000001 0 0 0 -0.50001,0.5 z"
       id="path16921"
       inkscape:connector-curvature="0" />
    <path
       style="font-size:12px;vector-effect:non-scaling-stroke;fill:none;fill-rule:evenodd;stroke:#000000;stroke-width:0.25000001mm;stroke-linecap:round"
       d="m -435.69994,119.73587 a 0.50000001,0.50000001 0 0 0 0.49998,0.5 h 13.00002 a 0.50000001,0.50000001 0 0 0 0.50001,-0.5 v -13 a 0.50000001,0.50000001 0 0 0 -0.50001,-0.5 h -13.00002 a 0.50000001,0.50000001 0 0 0 -0.49998,0.5 z"
       id="path16919"
       inkscape:connector-curvature="0" />
    <path
       style="font-size:12px;vector-effect:non-scaling-stroke;fill:none;fill-rule:evenodd;stroke:#000000;stroke-width:0.25000001mm;stroke-linecap:round"
       d="m -526.18745,120.68837 a 0.50000001,0.50000001 0 0 0 0.5,0.5 h 13 a 0.50000001,0.50000001 0 0 0 0.50001,-0.5 v -13 a 0.50000001,0.50000001 0 0 0 -0.50001,-0.5 h -13 a 0.50000001,0.50000001 0 0 0 -0.5,0.5 z"
       id="path16917"
       inkscape:connector-curvature="0" />
    <path
       style="font-size:12px;vector-effect:non-scaling-stroke;fill:none;fill-rule:evenodd;stroke:#000000;stroke-width:0.25000001mm;stroke-linecap:round"
       d="m -742.40494,121.64087 a 0.50000001,0.50000001 0 0 0 0.5,0.5 h 12.99999 a 0.50000001,0.50000001 0 0 0 0.50001,-0.5 v -13 a 0.50000001,0.50000001 0 0 0 -0.50001,-0.5 h -12.99999 a 0.50000001,0.50000001 0 0 0 -0.5,0.5 z"
       id="path16915"
       inkscape:connector-curvature="0" />
    <path
       style="font-size:12px;vector-effect:non-scaling-stroke;fill:none;fill-rule:evenodd;stroke:#000000;stroke-width:0.25000001mm;stroke-linecap:round"
       d="m -718.59245,121.64087 a 0.50000001,0.50000001 0 0 0 0.50001,0.5 h 13 a 0.50000001,0.50000001 0 0 0 0.5,-0.5 v -13 a 0.50000001,0.50000001 0 0 0 -0.5,-0.5 h -13 a 0.50000001,0.50000001 0 0 0 -0.50001,0.5 z"
       id="path16913"
       inkscape:connector-curvature="0" />
    <path
       style="font-size:12px;vector-effect:non-scaling-stroke;fill:none;fill-rule:evenodd;stroke:#000000;stroke-width:0.25000001mm;stroke-linecap:round"
       d="m -507.13745,121.64087 a 0.50000001,0.50000001 0 0 0 0.50001,0.5 h 13 a 0.50000001,0.50000001 0 0 0 0.50001,-0.5 v -13 a 0.50000001,0.50000001 0 0 0 -0.50001,-0.5 h -13 a 0.50000001,0.50000001 0 0 0 -0.50001,0.5 z"
       id="path16911"
       inkscape:connector-curvature="0" />
    <path
       style="font-size:12px;vector-effect:non-scaling-stroke;fill:none;fill-rule:evenodd;stroke:#000000;stroke-width:0.25000001mm;stroke-linecap:round"
       d="m -488.08744,121.64087 a 0.50000001,0.50000001 0 0 0 0.49998,0.5 h 13.00002 a 0.50000001,0.50000001 0 0 0 0.50001,-0.5 v -13 a 0.50000001,0.50000001 0 0 0 -0.50001,-0.5 h -13.00002 a 0.50000001,0.50000001 0 0 0 -0.49998,0.5 z"
       id="path16909"
       inkscape:connector-curvature="0" />
    <path
       style="font-size:12px;vector-effect:non-scaling-stroke;fill:none;fill-rule:evenodd;stroke:#000000;stroke-width:0.25000001mm;stroke-linecap:round"
       d="m -464.27494,121.64087 a 0.50000001,0.50000001 0 0 0 0.49998,0.5 h 13.00002 a 0.50000001,0.50000001 0 0 0 0.50001,-0.5 v -13 a 0.50000001,0.50000001 0 0 0 -0.50001,-0.5 h -13.00002 a 0.50000001,0.50000001 0 0 0 -0.49998,0.5 z"
       id="path16907"
       inkscape:connector-curvature="0" />
    <path
       style="font-size:12px;vector-effect:non-scaling-stroke;fill:none;fill-rule:evenodd;stroke:#000000;stroke-width:0.25000001mm;stroke-linecap:round"
       d="m -432.84244,138.78587 a 0.50000001,0.50000001 0 0 0 0.49998,0.5 h 13.00002 a 0.50000001,0.50000001 0 0 0 0.50001,-0.5 v -13 a 0.50000001,0.50000001 0 0 0 -0.50001,-0.5 h -13.00002 a 0.50000001,0.50000001 0 0 0 -0.49998,0.5 z"
       id="path16905"
       inkscape:connector-curvature="0" />
    <path
       style="font-size:12px;vector-effect:non-scaling-stroke;fill:none;fill-rule:evenodd;stroke:#000000;stroke-width:0.25000001mm;stroke-linecap:round"
       d="m -742.88124,140.69087 a 0.50000001,0.50000001 0 0 0 0.5,0.5 h 13 a 0.50000001,0.50000001 0 0 0 0.5,-0.5 v -13 a 0.50000001,0.50000001 0 0 0 -0.5,-0.5 h -13 a 0.50000001,0.50000001 0 0 0 -0.5,0.5 z"
       id="path16903"
       inkscape:connector-curvature="0" />
    <path
       style="font-size:12px;vector-effect:non-scaling-stroke;fill:none;fill-rule:evenodd;stroke:#000000;stroke-width:0.25000001mm;stroke-linecap:round"
       d="m -716.68745,140.69087 a 0.50000001,0.50000001 0 0 0 0.50001,0.5 h 13 a 0.50000001,0.50000001 0 0 0 0.5,-0.5 v -13 a 0.50000001,0.50000001 0 0 0 -0.5,-0.5 h -13 a 0.50000001,0.50000001 0 0 0 -0.50001,0.5 z"
       id="path16901"
       inkscape:connector-curvature="0" />
    <path
       style="font-size:12px;vector-effect:non-scaling-stroke;fill:none;fill-rule:evenodd;stroke:#000000;stroke-width:0.25000001mm;stroke-linecap:round"
       d="m -518.56745,140.69087 a 0.50000001,0.50000001 0 0 0 0.50001,0.5 h 12.99999 a 0.50000001,0.50000001 0 0 0 0.50001,-0.5 v -13 a 0.50000001,0.50000001 0 0 0 -0.50001,-0.5 h -12.99999 a 0.50000001,0.50000001 0 0 0 -0.50001,0.5 z"
       id="path16899"
       inkscape:connector-curvature="0" />
    <path
       style="font-size:12px;vector-effect:non-scaling-stroke;fill:none;fill-rule:evenodd;stroke:#000000;stroke-width:0.25000001mm;stroke-linecap:round"
       d="m -499.51745,140.69087 a 0.50000001,0.50000001 0 0 0 0.50001,0.5 h 13 a 0.50000001,0.50000001 0 0 0 0.50001,-0.5 v -13 a 0.50000001,0.50000001 0 0 0 -0.50001,-0.5 h -13 a 0.50000001,0.50000001 0 0 0 -0.50001,0.5 z"
       id="path16897"
       inkscape:connector-curvature="0" />
    <path
       style="font-size:12px;vector-effect:non-scaling-stroke;fill:none;fill-rule:evenodd;stroke:#000000;stroke-width:0.25000001mm;stroke-linecap:round"
       d="m -468.56124,140.69087 a 0.50000001,0.50000001 0 0 0 0.49998,0.5 h 13.00001 a 0.50000001,0.50000001 0 0 0 0.50001,-0.5 v -13 a 0.50000001,0.50000001 0 0 0 -0.50001,-0.5 h -13.00001 a 0.50000001,0.50000001 0 0 0 -0.49998,0.5 z"
       id="path16895"
       inkscape:connector-curvature="0" />
    <path
       style="font-size:12px;vector-effect:non-scaling-stroke;fill:none;fill-rule:evenodd;stroke:#000000;stroke-width:0.25000001mm;stroke-linecap:round"
       d="m -710.01995,159.74087 a 0.50000001,0.50000001 0 0 0 0.50001,0.5 h 13 a 0.50000001,0.50000001 0 0 0 0.5,-0.5 v -13 a 0.50000001,0.50000001 0 0 0 -0.5,-0.5 h -13 a 0.50000001,0.50000001 0 0 0 -0.50001,0.5 z"
       id="path16893"
       inkscape:connector-curvature="0" />
    <path
       style="font-size:12px;vector-effect:non-scaling-stroke;fill:none;fill-rule:evenodd;stroke:#000000;stroke-width:0.25000001mm;stroke-linecap:round"
       d="m -529.04495,159.74087 a 0.50000001,0.50000001 0 0 0 0.5,0.5 h 13 a 0.50000001,0.50000001 0 0 0 0.50001,-0.5 v -13 a 0.50000001,0.50000001 0 0 0 -0.50001,-0.5 h -13 a 0.50000001,0.50000001 0 0 0 -0.5,0.5 z"
       id="path16891"
       inkscape:connector-curvature="0" />
    <path
       style="font-size:12px;vector-effect:non-scaling-stroke;fill:none;fill-rule:evenodd;stroke:#000000;stroke-width:0.25000001mm;stroke-linecap:round"
       d="m -509.99495,159.74087 a 0.50000001,0.50000001 0 0 0 0.50001,0.5 h 12.99999 a 0.50000001,0.50000001 0 0 0 0.50002,-0.5 v -13 a 0.50000001,0.50000001 0 0 0 -0.50002,-0.5 h -12.99999 a 0.50000001,0.50000001 0 0 0 -0.50001,0.5 z"
       id="path16889"
       inkscape:connector-curvature="0" />
    <path
       style="font-size:12px;vector-effect:non-scaling-stroke;fill:none;fill-rule:evenodd;stroke:#000000;stroke-width:0.25000001mm;stroke-linecap:round"
       d="m -483.80124,159.74087 a 0.50000001,0.50000001 0 0 0 0.49998,0.5 h 13.00001 a 0.50000001,0.50000001 0 0 0 0.50001,-0.5 v -13 a 0.50000001,0.50000001 0 0 0 -0.50001,-0.5 h -13.00001 a 0.50000001,0.50000001 0 0 0 -0.49998,0.5 z"
       id="path16887"
       inkscape:connector-curvature="0" />
    <path
       style="font-size:12px;vector-effect:non-scaling-stroke;fill:none;fill-rule:evenodd;stroke:#000000;stroke-width:0.25000001mm;stroke-linecap:round"
       d="m -454.74994,162.59837 a 0.50000001,0.50000001 0 0 0 0.49998,0.5 h 13.00002 a 0.50000001,0.50000001 0 0 0 0.50001,-0.5 v -13 a 0.50000001,0.50000001 0 0 0 -0.50001,-0.5 h -13.00002 a 0.50000001,0.50000001 0 0 0 -0.49998,0.5 z"
       id="path16885"
       inkscape:connector-curvature="0" />
    <path
       style="font-size:12px;vector-effect:non-scaling-stroke;fill:none;fill-rule:evenodd;stroke:#000000;stroke-width:0.25000001mm;stroke-linecap:round"
       d="m -747.64374,178.79087 a 0.50000001,0.50000001 0 0 0 0.5,0.5 h 13 a 0.50000001,0.50000001 0 0 0 0.5,-0.5 v -13 a 0.50000001,0.50000001 0 0 0 -0.5,-0.5 h -13 a 0.50000001,0.50000001 0 0 0 -0.5,0.5 z"
       id="path16883"
       inkscape:connector-curvature="0" />
    <path
       style="font-size:12px;vector-effect:non-scaling-stroke;fill:none;fill-rule:evenodd;stroke:#000000;stroke-width:0.25000001mm;stroke-linecap:round"
       d="m -473.79994,181.64837 a 0.50000001,0.50000001 0 0 0 0.49998,0.5 h 13.00002 a 0.50000001,0.50000001 0 0 0 0.50001,-0.5 v -13 a 0.50000001,0.50000001 0 0 0 -0.50001,-0.5 h -13.00002 a 0.50000001,0.50000001 0 0 0 -0.49998,0.5 z"
       id="path16881"
       inkscape:connector-curvature="0" />
    <path
       style="font-size:12px;vector-effect:non-scaling-stroke;fill:none;fill-rule:evenodd;stroke:#000000;stroke-width:0.25000001mm;stroke-linecap:round"
       d="m -454.74994,181.64837 a 0.50000001,0.50000001 0 0 0 0.49998,0.5 h 13.00002 a 0.50000001,0.50000001 0 0 0 0.50001,-0.5 v -13 a 0.50000001,0.50000001 0 0 0 -0.50001,-0.5 h -13.00002 a 0.50000001,0.50000001 0 0 0 -0.49998,0.5 z"
       id="path16879"
       inkscape:connector-curvature="0" />
    <path
       style="font-size:12px;vector-effect:non-scaling-stroke;fill:none;fill-rule:evenodd;stroke:#000000;stroke-width:0.25000001mm;stroke-linecap:round"
       d="m -435.69994,181.64837 a 0.50000001,0.50000001 0 0 0 0.49998,0.5 h 13.00002 a 0.50000001,0.50000001 0 0 0 0.50001,-0.5 v -13 a 0.50000001,0.50000001 0 0 0 -0.50001,-0.5 h -13.00002 a 0.50000001,0.50000001 0 0 0 -0.49998,0.5 z"
       id="path16877"
       inkscape:connector-curvature="0" />
    <path
       style="font-size:12px;vector-effect:non-scaling-stroke;fill:none;fill-rule:evenodd;stroke:#000000;stroke-width:0.25000001mm;stroke-linecap:round"
       d="m -740.97624,159.74087 a 0.50000001,0.50000001 0 0 0 0.5,0.5 h 13 a 0.50000001,0.50000001 0 0 0 0.5,-0.5 v -13 a 0.50000001,0.50000001 0 0 0 -0.5,-0.5 h -13 a 0.50000001,0.50000001 0 0 0 -0.5,0.5 z"
       id="path16875"
       inkscape:connector-curvature="0" />
    <path
       style="font-size:12px;vector-effect:non-scaling-stroke;fill:none;fill-rule:evenodd;stroke:#000000;stroke-width:0.25000001mm;stroke-linecap:round"
       d="m -565.61865,171.17491 a 0.50000001,0.50000001 0 0 0 -0.5793,-0.40558 l -5.9088,1.04189 a 0.50000001,0.50000001 0 0 0 -0.4056,0.57922 l 2.4311,13.78731 a 0.50000001,0.50000001 0 0 0 0.5792,0.40558 l 5.9089,-1.04189 a 0.50000001,0.50000001 0 0 0 0.4055,-0.57922 z"
       id="path16873"
       inkscape:connector-curvature="0" />
    <path
       style="font-size:12px;vector-effect:non-scaling-stroke;fill:none;fill-rule:evenodd;stroke:#000000;stroke-width:0.25000001mm;stroke-linecap:round"
       d="m -665.16634,170.54271 a 0.50000001,0.50000001 0 0 0 -0.4056,-0.57922 l -5.9088,-1.04189 a 0.50000001,0.50000001 0 0 0 -0.5792,0.40558 l -2.4311,13.7873 a 0.50000001,0.50000001 0 0 0 0.4056,0.57923 l 5.9088,1.04189 a 0.50000001,0.50000001 0 0 0 0.5793,-0.40558 z"
       id="path16871"
       inkscape:connector-curvature="0" />
    <path
       style="font-size:12px;vector-effect:non-scaling-stroke;fill:none;fill-rule:evenodd;stroke:#000000;stroke-width:0.25000001mm;stroke-linecap:round"
       d="m -446.12325,126.69087 a 0.50000001,0.50000001 0 0 0 -0.49998,-0.5 h -6.00001 a 0.50000001,0.50000001 0 0 0 -0.50001,0.5 v 14 a 0.50000001,0.50000001 0 0 0 0.50001,0.5 h 6.00001 a 0.50000001,0.50000001 0 0 0 0.49998,-0.5 z"
       id="path16869"
       inkscape:connector-curvature="0" />
    <path
       style="font-size:12px;vector-effect:non-scaling-stroke;fill:none;fill-rule:evenodd;stroke:#000000;stroke-width:0.25000001mm;stroke-linecap:round"
       d="m -469.99925,126.69087 a 0.50000001,0.50000001 0 0 0 -0.49998,-0.5 h -6.00001 a 0.50000001,0.50000001 0 0 0 -0.50001,0.5 v 14 a 0.50000001,0.50000001 0 0 0 0.50001,0.5 h 6.00001 a 0.50000001,0.50000001 0 0 0 0.49998,-0.5 z"
       id="path16867"
       inkscape:connector-curvature="0" />
    <path
       style="font-size:12px;vector-effect:non-scaling-stroke;fill:none;fill-rule:evenodd;stroke:#000000;stroke-width:0.25000001mm;stroke-linecap:round"
       d="m -718.53825,145.74087 a 0.50000001,0.50000001 0 0 0 -0.49999,-0.5 h -6.00001 a 0.50000001,0.50000001 0 0 0 -0.49999,0.5 v 14 a 0.50000001,0.50000001 0 0 0 0.49999,0.5 h 6.00001 a 0.50000001,0.50000001 0 0 0 0.49999,-0.5 z"
       id="path16865"
       inkscape:connector-curvature="0" />
    <path
       style="font-size:12px;vector-effect:non-scaling-stroke;fill:none;fill-rule:evenodd;stroke:#000000;stroke-width:0.25000001mm;stroke-linecap:round"
       d="m -742.41424,145.74087 a 0.50000001,0.50000001 0 0 0 -0.5,-0.5 h -6 a 0.50000001,0.50000001 0 0 0 -0.5,0.5 v 14 a 0.50000001,0.50000001 0 0 0 0.5,0.5 h 6 a 0.50000001,0.50000001 0 0 0 0.5,-0.5 z"
       id="path16863"
       inkscape:connector-curvature="0" />
    <path
       style="font-size:12px;vector-effect:non-scaling-stroke;fill:none;fill-rule:evenodd;stroke:#000000;stroke-width:0.25000001mm;stroke-linecap:round"
       d="m -641.65305,174.68874 a 0.50000001,0.50000001 0 0 0 -0.4056,-0.57923 l -5.9088,-1.04189 a 0.50000001,0.50000001 0 0 0 -0.5793,0.40558 l -2.431,13.78731 a 0.50000001,0.50000001 0 0 0 0.4055,0.57923 l 5.9089,1.04189 a 0.50000001,0.50000001 0 0 0 0.5792,-0.40558 z"
       id="path16861"
       inkscape:connector-curvature="0" />
    <path
       style="font-size:12px;vector-effect:non-scaling-stroke;fill:none;fill-rule:evenodd;stroke:#000000;stroke-width:0.25000001mm;stroke-linecap:round"
       d="m -589.13195,175.32093 a 0.50000001,0.50000001 0 0 0 -0.5792,-0.40558 l -5.9089,1.04189 a 0.50000001,0.50000001 0 0 0 -0.4056,0.57923 l 2.4311,13.78731 a 0.50000001,0.50000001 0 0 0 0.5792,0.40558 l 5.9089,-1.04189 a 0.50000001,0.50000001 0 0 0 0.4056,-0.57923 z"
       id="path16826"
       inkscape:connector-curvature="0" />
    <path
       style="fill:none;stroke:#000000;stroke-width:0.26458332px;stroke-linecap:butt;stroke-linejoin:miter;stroke-opacity:1"
       d="m -760.55024,79.009452 c 0,-1.5 1.5,-3 3,-3 h 343.37429 c 1.5,0 3,1.5 3,3 V 189.67314 c 0,1.5 -1.5,3 -3,3 h -129.2538 l -60.2326,10.62063 -18.6296,0.22045 -61.48269,-10.84108 h -73.7756 c -1.5,0 -3,-1.5 -3,-3 z"
       id="path11236-7-0"
       inkscape:connector-curvature="0"
       sodipodi:nodetypes="ccccccccccccc" />
    <rect
       style="fill:none;stroke:#030000;stroke-width:0.25400001;stroke-miterlimit:4;stroke-dasharray:none;stroke-opacity:1;shape-rendering:crispEdges"
       id="rect9167-5-4"
       width="3.5559902"
       height="1.7782491"
       x="-420.65564"
       y="90.263893" />
    <rect
       style="fill:none;stroke:#030000;stroke-width:0.25400001;stroke-miterlimit:4;stroke-dasharray:none;stroke-opacity:1;shape-rendering:crispEdges"
       id="rect9167-9-0-4"
       width="3.5559902"
       height="1.7782491"
       x="-420.65564"
       y="94.264412" />
    <rect
       style="fill:none;stroke:#030000;stroke-width:0.25400001;stroke-miterlimit:4;stroke-dasharray:none;stroke-opacity:1;shape-rendering:crispEdges"
       id="rect9167-2-4-4"
       width="3.5559902"
       height="1.7782491"
       x="-420.65564"
       y="98.2649" />
    <circle
       style="fill:none;stroke:#030000;stroke-width:0.25400001;stroke-linecap:round;stroke-linejoin:round;stroke-miterlimit:4;stroke-dasharray:none;stroke-opacity:1;shape-rendering:crispEdges"
       id="path9336-59"
       cx="-752.86743"
       cy="87.264412"
       r="0.87300003" />
    <circle
       style="fill:none;stroke:#030000;stroke-width:0.25399998;stroke-linecap:round;stroke-linejoin:round;stroke-miterlimit:4;stroke-dasharray:none;stroke-opacity:1;shape-rendering:crispEdges"
       id="path9336-7-6"
       cx="-655.4906"
       cy="91.010902"
       r="0.87300003" />
    <circle
       style="fill:none;stroke:#030000;stroke-width:0.25399998;stroke-linecap:round;stroke-linejoin:round;stroke-miterlimit:4;stroke-dasharray:none;stroke-opacity:1;shape-rendering:crispEdges"
       id="path9336-6-2"
       cx="-576.02063"
       cy="91.010902"
       r="0.87300003" />
    <circle
       style="fill:none;stroke:#030000;stroke-width:0.25399998;stroke-linecap:round;stroke-linejoin:round;stroke-miterlimit:4;stroke-dasharray:none;stroke-opacity:1;shape-rendering:crispEdges"
       id="path9336-5-1"
       cx="-419.11261"
       cy="87.454903"
       r="0.87300003" />
    <circle
       style="fill:none;stroke:#030000;stroke-width:0.25399998;stroke-linecap:round;stroke-linejoin:round;stroke-miterlimit:4;stroke-dasharray:none;stroke-opacity:1;shape-rendering:crispEdges"
       id="path9336-69-7"
       cx="-419.14435"
       cy="181.78394"
       r="0.87300003" />
    <circle
       style="fill:none;stroke:#030000;stroke-width:0.25399998;stroke-linecap:round;stroke-linejoin:round;stroke-miterlimit:4;stroke-dasharray:none;stroke-opacity:1;shape-rendering:crispEdges"
       id="path9336-3-8"
       cx="-503.28165"
       cy="173.90999"
       r="0.87300003" />
    <circle
       style="fill:none;stroke:#030000;stroke-width:0.25399998;stroke-linecap:round;stroke-linejoin:round;stroke-miterlimit:4;stroke-dasharray:none;stroke-opacity:1;shape-rendering:crispEdges"
       id="path9336-74-5"
       cx="-440.13855"
       cy="145.05182"
       r="0.87300003" />
    <circle
       style="fill:none;stroke:#030000;stroke-width:0.25399998;stroke-linecap:round;stroke-linejoin:round;stroke-miterlimit:4;stroke-dasharray:none;stroke-opacity:1;shape-rendering:crispEdges"
       id="path9336-52-7"
       cx="-483.97644"
       cy="105.60569"
       r="0.87300003" />
    <circle
       style="fill:none;stroke:#030000;stroke-width:0.25399998;stroke-linecap:round;stroke-linejoin:round;stroke-miterlimit:4;stroke-dasharray:none;stroke-opacity:1;shape-rendering:crispEdges"
       id="path9336-54-4"
       cx="-501.85278"
       cy="87.454903"
       r="0.87300003" />
    <circle
       style="fill:none;stroke:#030000;stroke-width:0.25399998;stroke-linecap:round;stroke-linejoin:round;stroke-miterlimit:4;stroke-dasharray:none;stroke-opacity:1;shape-rendering:crispEdges"
       id="path9336-744-1"
       cx="-533.18359"
       cy="145.83162"
       r="0.87300003" />
    <circle
       style="fill:none;stroke:#030000;stroke-width:0.25399998;stroke-linecap:round;stroke-linejoin:round;stroke-miterlimit:4;stroke-dasharray:none;stroke-opacity:1;shape-rendering:crispEdges"
       id="path9336-30-8"
       cx="-616.15247"
       cy="129.11084"
       r="0.87300003" />
    <circle
       style="fill:none;stroke:#030000;stroke-width:0.25399998;stroke-linecap:round;stroke-linejoin:round;stroke-miterlimit:4;stroke-dasharray:none;stroke-opacity:1;shape-rendering:crispEdges"
       id="path9336-78-5"
       cx="-613.64429"
       cy="193.97591"
       r="1" />
    <circle
       style="fill:none;stroke:#030000;stroke-width:0.25399998;stroke-linecap:round;stroke-linejoin:round;stroke-miterlimit:4;stroke-dasharray:none;stroke-opacity:1;shape-rendering:crispEdges"
       id="path9336-4-9"
       cx="-700.18835"
       cy="105.85969"
       r="0.87300003" />
    <circle
       style="fill:none;stroke:#030000;stroke-width:0.25399998;stroke-linecap:round;stroke-linejoin:round;stroke-miterlimit:4;stroke-dasharray:none;stroke-opacity:1;shape-rendering:crispEdges"
       id="path9336-31-7"
       cx="-681.32629"
       cy="146.26849"
       r="0.87300003" />
    <circle
       style="fill:none;stroke:#030000;stroke-width:0.25399998;stroke-linecap:round;stroke-linejoin:round;stroke-miterlimit:4;stroke-dasharray:none;stroke-opacity:1;shape-rendering:crispEdges"
       id="path9336-49-5"
       cx="-710.91968"
       cy="172.4837"
       r="0.87300003" />
    <circle
       style="fill:none;stroke:#030000;stroke-width:0.25399998;stroke-linecap:round;stroke-linejoin:round;stroke-miterlimit:4;stroke-dasharray:none;stroke-opacity:1;shape-rendering:crispEdges"
       id="path9336-2-3"
       cx="-752.51831"
       cy="181.78394"
       r="0.87300003" />
    <circle
       style="fill:none;stroke:#000000;stroke-width:0.25399998;stroke-linecap:round;stroke-linejoin:round;stroke-miterlimit:4;stroke-dasharray:none;stroke-opacity:1;shape-rendering:crispEdges"
       id="path5227-5-90-9-2"
       cx="-415.1759"
       cy="188.67313"
       r="1.6" />
    <circle
       style="fill:none;stroke:#000000;stroke-width:0.25399998;stroke-linecap:round;stroke-linejoin:round;stroke-miterlimit:4;stroke-dasharray:none;stroke-opacity:1;shape-rendering:crispEdges"
       id="path5227-5-90-3-0-8-9"
       cx="-415.1759"
       cy="80.268959"
       r="1.6" />
    <circle
       style="fill:none;stroke:#000000;stroke-width:0.25399998;stroke-linecap:round;stroke-linejoin:round;stroke-miterlimit:4;stroke-dasharray:none;stroke-opacity:1;shape-rendering:crispEdges"
       id="path5227-5-90-3-2-7-4"
       cx="-756.55029"
       cy="80.268959"
       r="1.6" />
    <circle
       style="fill:none;stroke:#000000;stroke-width:0.25399998;stroke-linecap:round;stroke-linejoin:round;stroke-miterlimit:4;stroke-dasharray:none;stroke-opacity:1;shape-rendering:crispEdges"
       id="path5227-5-90-3-4-2-3"
       cx="-756.55029"
       cy="188.67313"
       r="1.6" />
    <circle
       style="fill:none;stroke:#000000;stroke-width:0.25399998;stroke-linecap:round;stroke-linejoin:round;stroke-miterlimit:4;stroke-dasharray:none;stroke-opacity:1;shape-rendering:crispEdges"
       id="path5227-5-90-3-0-9-8-5"
       cx="-509.92435"
       cy="188.67313"
       r="1.6" />
    <circle
       style="fill:none;stroke:#000000;stroke-width:0.25399998;stroke-linecap:round;stroke-linejoin:round;stroke-miterlimit:4;stroke-dasharray:none;stroke-opacity:1;shape-rendering:crispEdges"
       id="path5227-5-90-3-0-9-2-2-1"
       cx="-509.92435"
       cy="80.268959"
       r="1.6" />
    <circle
       style="fill:none;stroke:#000000;stroke-width:0.25399998;stroke-linecap:round;stroke-linejoin:round;stroke-miterlimit:4;stroke-dasharray:none;stroke-opacity:1;shape-rendering:crispEdges"
       id="path5227-5-90-3-0-9-24-99-7"
       cx="-688.91321"
       cy="80.268959"
       r="1.6" />
    <circle
       style="fill:none;stroke:#000000;stroke-width:0.25399998;stroke-linecap:round;stroke-linejoin:round;stroke-miterlimit:4;stroke-dasharray:none;stroke-opacity:1;shape-rendering:crispEdges"
       id="path5227-5-90-3-0-9-7-60-4"
       cx="-688.91321"
       cy="188.67313"
       r="1.6" />
    <polyline
       style="fill:none;stroke:#000000;stroke-width:0.5;stroke-linecap:round;stroke-linejoin:round;shape-rendering:crispEdges"
       points="4520.5 2869 4670.5 2869 4670.5 2917 4520.5 2917 4520.5 2869"
       layerid="3"
       net=""
       id="gge3895-5"
       locked="0"
       transform="matrix(0.2539993,0,0,0.2539993,-1778.6436,-643.99959)" />
  </g>
</svg>
